<?xml version="1.0" encoding="UTF-8" standalone="no"?>
<!-- Created with matplotlib (http://matplotlib.org/) -->

<svg
   xmlns:dc="http://purl.org/dc/elements/1.1/"
   xmlns:cc="http://creativecommons.org/ns#"
   xmlns:rdf="http://www.w3.org/1999/02/22-rdf-syntax-ns#"
   xmlns:svg="http://www.w3.org/2000/svg"
   xmlns="http://www.w3.org/2000/svg"
   xmlns:xlink="http://www.w3.org/1999/xlink"
   xmlns:sodipodi="http://sodipodi.sourceforge.net/DTD/sodipodi-0.dtd"
   xmlns:inkscape="http://www.inkscape.org/namespaces/inkscape"
   height="511pt"
   version="1.1"
   viewBox="0 0 936 511"
   width="936pt"
   id="svg2"
   inkscape:version="0.91 r13725"
   sodipodi:docname="EX2.svg">
  <metadata
     id="metadata469">
    <rdf:RDF>
      <cc:Work
         rdf:about="">
        <dc:format>image/svg+xml</dc:format>
        <dc:type
           rdf:resource="http://purl.org/dc/dcmitype/StillImage" />
        <dc:title></dc:title>
      </cc:Work>
    </rdf:RDF>
  </metadata>
  <sodipodi:namedview
     pagecolor="#ffffff"
     bordercolor="#666666"
     borderopacity="1"
     objecttolerance="10"
     gridtolerance="10"
     guidetolerance="10"
     inkscape:pageopacity="0"
     inkscape:pageshadow="2"
     inkscape:window-width="1301"
     inkscape:window-height="744"
     id="namedview467"
     showgrid="false"
     inkscape:zoom="0.71709402"
     inkscape:cx="585"
     inkscape:cy="319.375"
     inkscape:window-x="65"
     inkscape:window-y="24"
     inkscape:window-maximized="1"
     inkscape:current-layer="svg2" />
  <defs
     id="defs4">
    <style
       type="text/css"
       id="style6">
*{stroke-linecap:butt;stroke-linejoin:round;}
  </style>
    <clipPath
       id="pcdb1372a97-3">
      <rect
         height="393.62399"
         width="725.95801"
         x="117.09"
         y="61.344002"
         id="rect465-6" />
    </clipPath>
    <clipPath
       id="pcdb1372a97-3-5">
      <rect
         height="393.62399"
         width="725.95801"
         x="117.09"
         y="61.344002"
         id="rect465-6-3" />
    </clipPath>
    <clipPath
       id="pcdb1372a97-3-5-6">
      <rect
         height="393.62399"
         width="725.95801"
         x="117.09"
         y="61.344002"
         id="rect465-6-3-2" />
    </clipPath>
    <clipPath
       id="pcdb1372a97-3-5-6-1">
      <rect
         height="393.62399"
         width="725.95801"
         x="117.09"
         y="61.344002"
         id="rect465-6-3-2-2" />
    </clipPath>
  </defs>
  <g
     id="figure_1">
    <g
       id="patch_1">
      <path
         d="M 0 511.2  L 936.72 511.2  L 936.72 0  L 0 0  z "
         style="fill:#ffffff;"
         id="path10" />
    </g>
    <g
       id="axes_1">
      <g
         id="patch_2">
        <path
           d="M 117.09 454.968  L 843.048 454.968  L 843.048 61.344  L 117.09 61.344  z "
           style="fill:#ffffff;"
           id="path14" />
      </g>
      <g
         id="matplotlib.axis_1">
        <g
           id="xtick_1">
          <g
             id="line2d_1">
            <defs
               id="defs19">
              <path
                 d="M 0 0  L 0 3.5  "
                 id="m8a9f4127ee"
                 style="stroke:#000000;stroke-width:0.8;" />
            </defs>
            <g
               id="g22">
              <use
                 style="stroke:#000000;stroke-width:0.8;"
                 x="137.818321"
                 xlink:href="#m8a9f4127ee"
                 y="454.968"
                 id="use24" />
            </g>
          </g>
          <g
             id="text_1">
            <!-- −1.6 -->
            <defs
               id="defs27">
              <path
                 d="M 10.59375 35.5  L 73.1875 35.5  L 73.1875 27.203125  L 10.59375 27.203125  z "
                 id="DejaVuSans-2212" />
              <path
                 d="M 12.40625 8.296875  L 28.515625 8.296875  L 28.515625 63.921875  L 10.984375 60.40625  L 10.984375 69.390625  L 28.421875 72.90625  L 38.28125 72.90625  L 38.28125 8.296875  L 54.390625 8.296875  L 54.390625 0  L 12.40625 0  z "
                 id="DejaVuSans-31" />
              <path
                 d="M 10.6875 12.40625  L 21 12.40625  L 21 0  L 10.6875 0  z "
                 id="DejaVuSans-2e" />
              <path
                 d="M 33.015625 40.375  Q 26.375 40.375 22.484375 35.828125  Q 18.609375 31.296875 18.609375 23.390625  Q 18.609375 15.53125 22.484375 10.953125  Q 26.375 6.390625 33.015625 6.390625  Q 39.65625 6.390625 43.53125 10.953125  Q 47.40625 15.53125 47.40625 23.390625  Q 47.40625 31.296875 43.53125 35.828125  Q 39.65625 40.375 33.015625 40.375  M 52.59375 71.296875  L 52.59375 62.3125  Q 48.875 64.0625 45.09375 64.984375  Q 41.3125 65.921875 37.59375 65.921875  Q 27.828125 65.921875 22.671875 59.328125  Q 17.53125 52.734375 16.796875 39.40625  Q 19.671875 43.65625 24.015625 45.921875  Q 28.375 48.1875 33.59375 48.1875  Q 44.578125 48.1875 50.953125 41.515625  Q 57.328125 34.859375 57.328125 23.390625  Q 57.328125 12.15625 50.6875 5.359375  Q 44.046875 -1.421875 33.015625 -1.421875  Q 20.359375 -1.421875 13.671875 8.265625  Q 6.984375 17.96875 6.984375 36.375  Q 6.984375 53.65625 15.1875 63.9375  Q 23.390625 74.21875 37.203125 74.21875  Q 40.921875 74.21875 44.703125 73.484375  Q 48.484375 72.75 52.59375 71.296875  "
                 id="DejaVuSans-36" />
            </defs>
            <g
               transform="translate(118.392071 474.1255)scale(0.16 -0.16)"
               id="g33">
              <use
                 xlink:href="#DejaVuSans-2212"
                 id="use35" />
              <use
                 x="83.789062"
                 xlink:href="#DejaVuSans-31"
                 id="use37" />
              <use
                 x="147.412109"
                 xlink:href="#DejaVuSans-2e"
                 id="use39" />
              <use
                 x="179.199219"
                 xlink:href="#DejaVuSans-36"
                 id="use41" />
            </g>
          </g>
        </g>
        <g
           id="xtick_2">
          <g
             id="line2d_2">
            <g
               id="g45">
              <use
                 style="stroke:#000000;stroke-width:0.8;"
                 x="221.84727"
                 xlink:href="#m8a9f4127ee"
                 y="454.968"
                 id="use47" />
            </g>
          </g>
          <g
             id="text_2">
            <!-- −1.4 -->
            <defs
               id="defs50">
              <path
                 d="M 37.796875 64.3125  L 12.890625 25.390625  L 37.796875 25.390625  z M 35.203125 72.90625  L 47.609375 72.90625  L 47.609375 25.390625  L 58.015625 25.390625  L 58.015625 17.1875  L 47.609375 17.1875  L 47.609375 0  L 37.796875 0  L 37.796875 17.1875  L 4.890625 17.1875  L 4.890625 26.703125  z "
                 id="DejaVuSans-34" />
            </defs>
            <g
               transform="translate(202.42102 474.1255)scale(0.16 -0.16)"
               id="g53">
              <use
                 xlink:href="#DejaVuSans-2212"
                 id="use55" />
              <use
                 x="83.789062"
                 xlink:href="#DejaVuSans-31"
                 id="use57" />
              <use
                 x="147.412109"
                 xlink:href="#DejaVuSans-2e"
                 id="use59" />
              <use
                 x="179.199219"
                 xlink:href="#DejaVuSans-34"
                 id="use61" />
            </g>
          </g>
        </g>
        <g
           id="xtick_3">
          <g
             id="line2d_3">
            <g
               id="g65">
              <use
                 style="stroke:#000000;stroke-width:0.8;"
                 x="305.876218"
                 xlink:href="#m8a9f4127ee"
                 y="454.968"
                 id="use67" />
            </g>
          </g>
          <g
             id="text_3">
            <!-- −1.2 -->
            <defs
               id="defs70">
              <path
                 d="M 19.1875 8.296875  L 53.609375 8.296875  L 53.609375 0  L 7.328125 0  L 7.328125 8.296875  Q 12.9375 14.109375 22.625 23.890625  Q 32.328125 33.6875 34.8125 36.53125  Q 39.546875 41.84375 41.421875 45.53125  Q 43.3125 49.21875 43.3125 52.78125  Q 43.3125 58.59375 39.234375 62.25  Q 35.15625 65.921875 28.609375 65.921875  Q 23.96875 65.921875 18.8125 64.3125  Q 13.671875 62.703125 7.8125 59.421875  L 7.8125 69.390625  Q 13.765625 71.78125 18.9375 73  Q 24.125 74.21875 28.421875 74.21875  Q 39.75 74.21875 46.484375 68.546875  Q 53.21875 62.890625 53.21875 53.421875  Q 53.21875 48.921875 51.53125 44.890625  Q 49.859375 40.875 45.40625 35.40625  Q 44.1875 33.984375 37.640625 27.21875  Q 31.109375 20.453125 19.1875 8.296875  "
                 id="DejaVuSans-32" />
            </defs>
            <g
               transform="translate(286.449968 474.1255)scale(0.16 -0.16)"
               id="g73">
              <use
                 xlink:href="#DejaVuSans-2212"
                 id="use75" />
              <use
                 x="83.789062"
                 xlink:href="#DejaVuSans-31"
                 id="use77" />
              <use
                 x="147.412109"
                 xlink:href="#DejaVuSans-2e"
                 id="use79" />
              <use
                 x="179.199219"
                 xlink:href="#DejaVuSans-32"
                 id="use81" />
            </g>
          </g>
        </g>
        <g
           id="xtick_4">
          <g
             id="line2d_4">
            <g
               id="g85">
              <use
                 style="stroke:#000000;stroke-width:0.8;"
                 x="389.905167"
                 xlink:href="#m8a9f4127ee"
                 y="454.968"
                 id="use87" />
            </g>
          </g>
          <g
             id="text_4">
            <!-- −1.0 -->
            <defs
               id="defs90">
              <path
                 d="M 31.78125 66.40625  Q 24.171875 66.40625 20.328125 58.90625  Q 16.5 51.421875 16.5 36.375  Q 16.5 21.390625 20.328125 13.890625  Q 24.171875 6.390625 31.78125 6.390625  Q 39.453125 6.390625 43.28125 13.890625  Q 47.125 21.390625 47.125 36.375  Q 47.125 51.421875 43.28125 58.90625  Q 39.453125 66.40625 31.78125 66.40625  M 31.78125 74.21875  Q 44.046875 74.21875 50.515625 64.515625  Q 56.984375 54.828125 56.984375 36.375  Q 56.984375 17.96875 50.515625 8.265625  Q 44.046875 -1.421875 31.78125 -1.421875  Q 19.53125 -1.421875 13.0625 8.265625  Q 6.59375 17.96875 6.59375 36.375  Q 6.59375 54.828125 13.0625 64.515625  Q 19.53125 74.21875 31.78125 74.21875  "
                 id="DejaVuSans-30" />
            </defs>
            <g
               transform="translate(370.478917 474.1255)scale(0.16 -0.16)"
               id="g93">
              <use
                 xlink:href="#DejaVuSans-2212"
                 id="use95" />
              <use
                 x="83.789062"
                 xlink:href="#DejaVuSans-31"
                 id="use97" />
              <use
                 x="147.412109"
                 xlink:href="#DejaVuSans-2e"
                 id="use99" />
              <use
                 x="179.199219"
                 xlink:href="#DejaVuSans-30"
                 id="use101" />
            </g>
          </g>
        </g>
        <g
           id="xtick_5">
          <g
             id="line2d_5">
            <g
               id="g105">
              <use
                 style="stroke:#000000;stroke-width:0.8;"
                 x="473.934115"
                 xlink:href="#m8a9f4127ee"
                 y="454.968"
                 id="use107" />
            </g>
          </g>
          <g
             id="text_5">
            <!-- −0.8 -->
            <defs
               id="defs110">
              <path
                 d="M 31.78125 34.625  Q 24.75 34.625 20.71875 30.859375  Q 16.703125 27.09375 16.703125 20.515625  Q 16.703125 13.921875 20.71875 10.15625  Q 24.75 6.390625 31.78125 6.390625  Q 38.8125 6.390625 42.859375 10.171875  Q 46.921875 13.96875 46.921875 20.515625  Q 46.921875 27.09375 42.890625 30.859375  Q 38.875 34.625 31.78125 34.625  M 21.921875 38.8125  Q 15.578125 40.375 12.03125 44.71875  Q 8.5 49.078125 8.5 55.328125  Q 8.5 64.0625 14.71875 69.140625  Q 20.953125 74.21875 31.78125 74.21875  Q 42.671875 74.21875 48.875 69.140625  Q 55.078125 64.0625 55.078125 55.328125  Q 55.078125 49.078125 51.53125 44.71875  Q 48 40.375 41.703125 38.8125  Q 48.828125 37.15625 52.796875 32.3125  Q 56.78125 27.484375 56.78125 20.515625  Q 56.78125 9.90625 50.3125 4.234375  Q 43.84375 -1.421875 31.78125 -1.421875  Q 19.734375 -1.421875 13.25 4.234375  Q 6.78125 9.90625 6.78125 20.515625  Q 6.78125 27.484375 10.78125 32.3125  Q 14.796875 37.15625 21.921875 38.8125  M 18.3125 54.390625  Q 18.3125 48.734375 21.84375 45.5625  Q 25.390625 42.390625 31.78125 42.390625  Q 38.140625 42.390625 41.71875 45.5625  Q 45.3125 48.734375 45.3125 54.390625  Q 45.3125 60.0625 41.71875 63.234375  Q 38.140625 66.40625 31.78125 66.40625  Q 25.390625 66.40625 21.84375 63.234375  Q 18.3125 60.0625 18.3125 54.390625  "
                 id="DejaVuSans-38" />
            </defs>
            <g
               transform="translate(454.507865 474.1255)scale(0.16 -0.16)"
               id="g113">
              <use
                 xlink:href="#DejaVuSans-2212"
                 id="use115" />
              <use
                 x="83.789062"
                 xlink:href="#DejaVuSans-30"
                 id="use117" />
              <use
                 x="147.412109"
                 xlink:href="#DejaVuSans-2e"
                 id="use119" />
              <use
                 x="179.199219"
                 xlink:href="#DejaVuSans-38"
                 id="use121" />
            </g>
          </g>
        </g>
        <g
           id="xtick_6">
          <g
             id="line2d_6">
            <g
               id="g125">
              <use
                 style="stroke:#000000;stroke-width:0.8;"
                 x="557.963064"
                 xlink:href="#m8a9f4127ee"
                 y="454.968"
                 id="use127" />
            </g>
          </g>
          <g
             id="text_6">
            <!-- −0.6 -->
            <g
               transform="translate(538.536814 474.1255)scale(0.16 -0.16)"
               id="g130">
              <use
                 xlink:href="#DejaVuSans-2212"
                 id="use132" />
              <use
                 x="83.789062"
                 xlink:href="#DejaVuSans-30"
                 id="use134" />
              <use
                 x="147.412109"
                 xlink:href="#DejaVuSans-2e"
                 id="use136" />
              <use
                 x="179.199219"
                 xlink:href="#DejaVuSans-36"
                 id="use138" />
            </g>
          </g>
        </g>
        <g
           id="xtick_7">
          <g
             id="line2d_7">
            <g
               id="g142">
              <use
                 style="stroke:#000000;stroke-width:0.8;"
                 x="641.992012"
                 xlink:href="#m8a9f4127ee"
                 y="454.968"
                 id="use144" />
            </g>
          </g>
          <g
             id="text_7">
            <!-- −0.4 -->
            <g
               transform="translate(622.565762 474.1255)scale(0.16 -0.16)"
               id="g147">
              <use
                 xlink:href="#DejaVuSans-2212"
                 id="use149" />
              <use
                 x="83.789062"
                 xlink:href="#DejaVuSans-30"
                 id="use151" />
              <use
                 x="147.412109"
                 xlink:href="#DejaVuSans-2e"
                 id="use153" />
              <use
                 x="179.199219"
                 xlink:href="#DejaVuSans-34"
                 id="use155" />
            </g>
          </g>
        </g>
        <g
           id="xtick_8">
          <g
             id="line2d_8">
            <g
               id="g159">
              <use
                 style="stroke:#000000;stroke-width:0.8;"
                 x="726.020961"
                 xlink:href="#m8a9f4127ee"
                 y="454.968"
                 id="use161" />
            </g>
          </g>
          <g
             id="text_8">
            <!-- −0.2 -->
            <g
               transform="translate(706.594711 474.1255)scale(0.16 -0.16)"
               id="g164">
              <use
                 xlink:href="#DejaVuSans-2212"
                 id="use166" />
              <use
                 x="83.789062"
                 xlink:href="#DejaVuSans-30"
                 id="use168" />
              <use
                 x="147.412109"
                 xlink:href="#DejaVuSans-2e"
                 id="use170" />
              <use
                 x="179.199219"
                 xlink:href="#DejaVuSans-32"
                 id="use172" />
            </g>
          </g>
        </g>
        <g
           id="xtick_9">
          <g
             id="line2d_9">
            <g
               id="g176">
              <use
                 style="stroke:#000000;stroke-width:0.8;"
                 x="810.049909"
                 xlink:href="#m8a9f4127ee"
                 y="454.968"
                 id="use178" />
            </g>
          </g>
          <g
             id="text_9">
            <!-- 0.0 -->
            <g
               transform="translate(797.327409 474.1255)scale(0.16 -0.16)"
               id="g181">
              <use
                 xlink:href="#DejaVuSans-30"
                 id="use183" />
              <use
                 x="63.623047"
                 xlink:href="#DejaVuSans-2e"
                 id="use185" />
              <use
                 x="95.410156"
                 xlink:href="#DejaVuSans-30"
                 id="use187" />
            </g>
          </g>
        </g>
        <g
           id="text_10">
          <!-- $x$ -->
          <defs
             id="defs190">
            <path
               d="M 60.015625 54.6875  L 34.90625 27.875  L 50.296875 0  L 39.984375 0  L 28.421875 21.6875  L 8.296875 0  L -2.59375 0  L 24.3125 28.8125  L 10.015625 54.6875  L 20.3125 54.6875  L 30.8125 34.90625  L 49.125 54.6875  z "
               id="DejaVuSans-Oblique-78" />
          </defs>
          <g
             transform="translate(475.269 493.6105)scale(0.16 -0.16)"
             id="g193">
            <use
               transform="translate(0 0.3125)"
               xlink:href="#DejaVuSans-Oblique-78"
               id="use195" />
          </g>
        </g>
      </g>
      <g
         id="matplotlib.axis_2">
        <g
           id="ytick_1">
          <g
             id="line2d_10">
            <defs
               id="defs200">
              <path
                 d="M 0 0  L -3.5 0  "
                 id="m29bf7c23f6"
                 style="stroke:#000000;stroke-width:0.8;" />
            </defs>
            <g
               id="g203">
              <use
                 style="stroke:#000000;stroke-width:0.8;"
                 x="117.09"
                 xlink:href="#m29bf7c23f6"
                 y="437.076"
                 id="use205" />
            </g>
          </g>
          <g
             id="text_11">
            <!-- −1.0 -->
            <g
               transform="translate(71.2375 443.15475)scale(0.16 -0.16)"
               id="g208">
              <use
                 xlink:href="#DejaVuSans-2212"
                 id="use210" />
              <use
                 x="83.789062"
                 xlink:href="#DejaVuSans-31"
                 id="use212" />
              <use
                 x="147.412109"
                 xlink:href="#DejaVuSans-2e"
                 id="use214" />
              <use
                 x="179.199219"
                 xlink:href="#DejaVuSans-30"
                 id="use216" />
            </g>
          </g>
        </g>
        <g
           id="ytick_2">
          <g
             id="line2d_11">
            <g
               id="g220">
              <use
                 style="stroke:#000000;stroke-width:0.8;"
                 x="117.09"
                 xlink:href="#m29bf7c23f6"
                 y="365.508"
                 id="use222" />
            </g>
          </g>
          <g
             id="text_12">
            <!-- −0.8 -->
            <g
               transform="translate(71.2375 371.58675)scale(0.16 -0.16)"
               id="g225">
              <use
                 xlink:href="#DejaVuSans-2212"
                 id="use227" />
              <use
                 x="83.789062"
                 xlink:href="#DejaVuSans-30"
                 id="use229" />
              <use
                 x="147.412109"
                 xlink:href="#DejaVuSans-2e"
                 id="use231" />
              <use
                 x="179.199219"
                 xlink:href="#DejaVuSans-38"
                 id="use233" />
            </g>
          </g>
        </g>
        <g
           id="ytick_3">
          <g
             id="line2d_12">
            <g
               id="g237">
              <use
                 style="stroke:#000000;stroke-width:0.8;"
                 x="117.09"
                 xlink:href="#m29bf7c23f6"
                 y="293.94"
                 id="use239" />
            </g>
          </g>
          <g
             id="text_13">
            <!-- −0.6 -->
            <g
               transform="translate(71.2375 300.01875)scale(0.16 -0.16)"
               id="g242">
              <use
                 xlink:href="#DejaVuSans-2212"
                 id="use244" />
              <use
                 x="83.789062"
                 xlink:href="#DejaVuSans-30"
                 id="use246" />
              <use
                 x="147.412109"
                 xlink:href="#DejaVuSans-2e"
                 id="use248" />
              <use
                 x="179.199219"
                 xlink:href="#DejaVuSans-36"
                 id="use250" />
            </g>
          </g>
        </g>
        <g
           id="ytick_4">
          <g
             id="line2d_13">
            <g
               id="g254">
              <use
                 style="stroke:#000000;stroke-width:0.8;"
                 x="117.09"
                 xlink:href="#m29bf7c23f6"
                 y="222.372"
                 id="use256" />
            </g>
          </g>
          <g
             id="text_14">
            <!-- −0.4 -->
            <g
               transform="translate(71.2375 228.45075)scale(0.16 -0.16)"
               id="g259">
              <use
                 xlink:href="#DejaVuSans-2212"
                 id="use261" />
              <use
                 x="83.789062"
                 xlink:href="#DejaVuSans-30"
                 id="use263" />
              <use
                 x="147.412109"
                 xlink:href="#DejaVuSans-2e"
                 id="use265" />
              <use
                 x="179.199219"
                 xlink:href="#DejaVuSans-34"
                 id="use267" />
            </g>
          </g>
        </g>
        <g
           id="ytick_5">
          <g
             id="line2d_14">
            <g
               id="g271">
              <use
                 style="stroke:#000000;stroke-width:0.8;"
                 x="117.09"
                 xlink:href="#m29bf7c23f6"
                 y="150.804"
                 id="use273" />
            </g>
          </g>
          <g
             id="text_15">
            <!-- −0.2 -->
            <g
               transform="translate(71.2375 156.88275)scale(0.16 -0.16)"
               id="g276">
              <use
                 xlink:href="#DejaVuSans-2212"
                 id="use278" />
              <use
                 x="83.789062"
                 xlink:href="#DejaVuSans-30"
                 id="use280" />
              <use
                 x="147.412109"
                 xlink:href="#DejaVuSans-2e"
                 id="use282" />
              <use
                 x="179.199219"
                 xlink:href="#DejaVuSans-32"
                 id="use284" />
            </g>
          </g>
        </g>
        <g
           id="ytick_6">
          <g
             id="line2d_15">
            <g
               id="g288">
              <use
                 style="stroke:#000000;stroke-width:0.8;"
                 x="117.09"
                 xlink:href="#m29bf7c23f6"
                 y="79.236"
                 id="use290" />
            </g>
          </g>
          <g
             id="text_16">
            <!-- 0.0 -->
            <g
               transform="translate(84.645 85.31475)scale(0.16 -0.16)"
               id="g293">
              <use
                 xlink:href="#DejaVuSans-30"
                 id="use295" />
              <use
                 x="63.623047"
                 xlink:href="#DejaVuSans-2e"
                 id="use297" />
              <use
                 x="95.410156"
                 xlink:href="#DejaVuSans-30"
                 id="use299" />
            </g>
          </g>
        </g>
        <g
           id="text_17">
          <!-- $y$ -->
          <defs
             id="defs302">
            <path
               d="M 24.8125 -5.078125  Q 18.5625 -15.578125 14.625 -18.1875  Q 10.6875 -20.796875 4.59375 -20.796875  L -2.484375 -20.796875  L -0.984375 -13.28125  L 4.203125 -13.28125  Q 7.953125 -13.28125 10.59375 -11.234375  Q 13.234375 -9.1875 16.5 -3.21875  L 19.28125 2  L 7.171875 54.6875  L 16.703125 54.6875  L 25.78125 12.796875  L 50.875 54.6875  L 60.296875 54.6875  z "
               id="DejaVuSans-Oblique-79" />
          </defs>
          <g
             transform="translate(63.8775 262.956)rotate(-90)scale(0.16 -0.16)"
             id="g305">
            <use
               transform="translate(0 0.3125)"
               xlink:href="#DejaVuSans-Oblique-79"
               id="use307" />
          </g>
        </g>
      </g>
      <g
         id="line2d_16">
        <path
           clip-path="url(#pcdb1372a97)"
           d="M 150.088091 437.076  L 160.65805 436.962764  L 171.228009 436.623127  L 181.797968 436.057305  L 192.367927 435.265656  L 202.937886 434.24868  L 213.507845 433.007022  L 224.077804 431.541466  L 234.647763 429.852942  L 245.217722 427.942516  L 255.787681 425.811399  L 266.35764 423.460939  L 276.9276 420.892624  L 288.158181 417.926904  L 299.388762 414.719202  L 310.619344 411.27181  L 321.849925 407.587189  L 333.080507 403.667973  L 344.311088 399.516961  L 355.54167 395.137121  L 367.432874 390.253707  L 379.324078 385.121172  L 391.215282 379.743627  L 403.106486 374.12538  L 414.99769 368.270931  L 427.549516 361.840168  L 440.101342 355.157196  L 452.653169 348.227978  L 465.865618 340.674839  L 479.078066 332.863173  L 492.290515 324.800708  L 506.163586 316.073921  L 520.036658 307.088933  L 534.570351 297.409827  L 549.104045 287.469678  L 564.298361 276.811504  L 580.1533 265.414681  L 596.668861 253.261336  L 613.845044 240.336908  L 631.68185 226.630743  L 650.179278 212.136715  L 669.997952 196.322336  L 691.13787 179.16743  L 714.259655 160.116201  L 740.684553 138.046898  L 773.055052 110.704059  L 810.049909 79.236  L 810.049909 79.236  "
           style="fill:none;stroke:#000000;stroke-linecap:square;stroke-width:1.5;"
           id="path310" />
      </g>
      <g
         id="line2d_17">
        <path
           clip-path="url(#pcdb1372a97)"
           d="M 150.088091 437.076  L 150.219504 434.355872  L 150.658612 429.846186  L 151.414723 424.40593  L 152.497243 418.249851  L 153.909187 411.521113  L 155.639528 404.362881  L 157.704177 396.775156  L 160.099113 388.829519  L 162.814119 380.597552  L 165.859346 372.079257  L 169.217989 363.346214  L 172.89729 354.398424  L 176.905698 345.235888  L 181.25271 335.858605  L 185.912808 326.338156  L 190.891783 316.674544  L 196.196278 306.867766  L 201.792262 296.989407  L 207.72572 286.967882  L 213.96042 276.874776  L 220.500439 266.710087  L 227.3505 256.473816  L 234.51596 246.165962  L 242.002796 235.786526  L 249.763138 225.40709  L 257.854851 214.956072  L 266.227418 204.505054  L 274.94368 193.982453  L 283.950412 183.459853  L 293.251295 172.937252  L 302.850544 162.414652  L 312.752923 151.892051  L 322.893244 141.441033  L 333.343639 130.990015  L 344.110507 120.538997  L 355.123805 110.159561  L 366.384407 99.851707  L 377.975251 89.543854  L 389.821129 79.307582  L 389.905167 79.236  L 389.905167 79.236  "
           style="fill:none;stroke:#000000;stroke-linecap:square;stroke-width:1.5;"
           id="path313" />
      </g>
      <g
         id="line2d_18">
        <path
           clip-path="url(#pcdb1372a97)"
           d="M 570.232833 437.076  L 570.364247 434.355872  L 570.803354 429.846186  L 571.559465 424.40593  L 572.641985 418.249851  L 574.053929 411.521113  L 575.78427 404.362881  L 577.84892 396.775156  L 580.243856 388.829519  L 582.958862 380.597552  L 586.004089 372.079257  L 589.362732 363.346214  L 593.042033 354.398424  L 597.050441 345.235888  L 601.397452 335.858605  L 606.05755 326.338156  L 611.036525 316.674544  L 616.34102 306.867766  L 621.937004 296.989407  L 627.870463 286.967882  L 634.105163 276.874776  L 640.645181 266.710087  L 647.495243 256.473816  L 654.660702 246.165962  L 662.147538 235.786526  L 669.907881 225.40709  L 677.999594 214.956072  L 686.37216 204.505054  L 695.088422 193.982453  L 704.095155 183.459853  L 713.396038 172.937252  L 722.995286 162.414652  L 732.897665 151.892051  L 743.037986 141.441033  L 753.488381 130.990015  L 764.255249 120.538997  L 775.268548 110.159561  L 786.529149 99.851707  L 798.119994 89.543854  L 809.965872 79.307582  L 810.049909 79.236  L 810.049909 79.236  "
           style="fill:none;stroke:#000000;stroke-linecap:square;stroke-width:1.5;"
           id="path316" />
      </g>
      <g
         id="patch_3">
        <path
           d="M 117.09 454.968  L 117.09 61.344  "
           style="fill:none;stroke:#000000;stroke-linecap:square;stroke-linejoin:miter;stroke-width:0.8;"
           id="path319" />
      </g>
      <g
         id="patch_4">
        <path
           d="M 843.048 454.968  L 843.048 61.344  "
           style="fill:none;stroke:#000000;stroke-linecap:square;stroke-linejoin:miter;stroke-width:0.8;"
           id="path322" />
      </g>
      <g
         id="patch_5">
        <path
           d="M 117.09 454.968  L 843.048 454.968  "
           style="fill:none;stroke:#000000;stroke-linecap:square;stroke-linejoin:miter;stroke-width:0.8;"
           id="path325" />
      </g>
      <g
         id="patch_6">
        <path
           d="M 117.09 61.344  L 843.048 61.344  "
           style="fill:none;stroke:#000000;stroke-linecap:square;stroke-linejoin:miter;stroke-width:0.8;"
           id="path328" />
      </g>
      <g
         id="patch_7">
        <path
           d="M 452.923073 363.150384  Q 443.419994 362.598036 435.033066 362.110562  "
           style="fill:none;stroke:#000000;stroke-linecap:round;"
           id="path331" />
        <path
           d="M 441.236602 365.676531  L 435.033066 362.110562  L 441.607963 359.287314  "
           style="fill:none;stroke:#000000;stroke-linecap:round;"
           id="path333" />
      </g>
      <g
         id="text_18">
        <!-- $f(x)$ -->
        <defs
           id="defs336">
          <path
             d="M 47.796875 75.984375  L 46.390625 68.5  L 37.796875 68.5  Q 32.90625 68.5 30.6875 66.578125  Q 28.46875 64.65625 27.390625 59.515625  L 26.421875 54.6875  L 41.21875 54.6875  L 39.890625 47.703125  L 25.09375 47.703125  L 15.828125 0  L 6.78125 0  L 16.109375 47.703125  L 7.515625 47.703125  L 8.796875 54.6875  L 17.390625 54.6875  L 18.109375 58.5  Q 19.96875 68.171875 24.625 72.078125  Q 29.296875 75.984375 39.3125 75.984375  z "
             id="DejaVuSans-Oblique-66" />
          <path
             d="M 31 75.875  Q 24.46875 64.65625 21.28125 53.65625  Q 18.109375 42.671875 18.109375 31.390625  Q 18.109375 20.125 21.3125 9.0625  Q 24.515625 -2 31 -13.1875  L 23.1875 -13.1875  Q 15.875 -1.703125 12.234375 9.375  Q 8.59375 20.453125 8.59375 31.390625  Q 8.59375 42.28125 12.203125 53.3125  Q 15.828125 64.359375 23.1875 75.875  z "
             id="DejaVuSans-28" />
          <path
             d="M 8.015625 75.875  L 15.828125 75.875  Q 23.140625 64.359375 26.78125 53.3125  Q 30.421875 42.28125 30.421875 31.390625  Q 30.421875 20.453125 26.78125 9.375  Q 23.140625 -1.703125 15.828125 -13.1875  L 8.015625 -13.1875  Q 14.5 -2 17.703125 9.0625  Q 20.90625 20.125 20.90625 31.390625  Q 20.90625 42.671875 17.703125 53.65625  Q 14.5 64.65625 8.015625 75.875  "
             id="DejaVuSans-29" />
        </defs>
        <g
           transform="translate(456.919641 368.6021)scale(0.16 -0.16)"
           id="g341">
          <use
             transform="translate(0 0.015625)"
             xlink:href="#DejaVuSans-Oblique-66"
             id="use343" />
          <use
             transform="translate(35.205078 0.015625)"
             xlink:href="#DejaVuSans-28"
             id="use345" />
          <use
             transform="translate(74.21875 0.015625)"
             xlink:href="#DejaVuSans-Oblique-78"
             id="use347" />
          <use
             transform="translate(133.398438 0.015625)"
             xlink:href="#DejaVuSans-29"
             id="use349" />
        </g>
      </g>
      <g
         id="patch_8">
        <path
           d="M 234.421358 214.804086  Q 243.957823 216.612565 252.395832 218.212735  "
           style="fill:none;stroke:#000000;stroke-linecap:round;"
           id="path352" />
        <path
           d="M 246.704115 213.876335  L 252.395832 218.212735  L 245.511682 220.164268  "
           style="fill:none;stroke:#000000;stroke-linecap:round;"
           id="path354" />
      </g>
      <g
         id="text_19">
        <!-- $a(y)$ -->
        <defs
           id="defs357">
          <path
             d="M 53.71875 31.203125  L 47.609375 0  L 38.625 0  L 40.28125 8.296875  Q 36.328125 3.421875 31.265625 1  Q 26.21875 -1.421875 20.015625 -1.421875  Q 13.03125 -1.421875 8.5625 2.84375  Q 4.109375 7.125 4.109375 13.8125  Q 4.109375 23.390625 11.75 28.953125  Q 19.390625 34.515625 32.8125 34.515625  L 45.3125 34.515625  L 45.796875 36.921875  Q 45.90625 37.3125 45.953125 37.765625  Q 46 38.234375 46 39.203125  Q 46 43.5625 42.453125 45.96875  Q 38.921875 48.390625 32.515625 48.390625  Q 28.125 48.390625 23.5 47.265625  Q 18.890625 46.140625 14.015625 43.890625  L 15.578125 52.203125  Q 20.65625 54.109375 25.515625 55.046875  Q 30.375 56 34.90625 56  Q 44.578125 56 49.625 51.796875  Q 54.6875 47.609375 54.6875 39.59375  Q 54.6875 37.984375 54.4375 35.8125  Q 54.203125 33.640625 53.71875 31.203125  M 44 27.484375  L 35.015625 27.484375  Q 23.96875 27.484375 18.671875 24.53125  Q 13.375 21.578125 13.375 15.375  Q 13.375 11.078125 16.078125 8.640625  Q 18.796875 6.203125 23.578125 6.203125  Q 30.90625 6.203125 36.375 11.453125  Q 41.84375 16.703125 43.609375 25.484375  z "
             id="DejaVuSans-Oblique-61" />
        </defs>
        <g
           transform="translate(198.618849 215.4336)scale(0.16 -0.16)"
           id="g360">
          <use
             transform="translate(0 0.125)"
             xlink:href="#DejaVuSans-Oblique-61"
             id="use362" />
          <use
             transform="translate(61.279297 0.125)"
             xlink:href="#DejaVuSans-28"
             id="use364" />
          <use
             transform="translate(100.292969 0.125)"
             xlink:href="#DejaVuSans-Oblique-79"
             id="use366" />
          <use
             transform="translate(159.472656 0.125)"
             xlink:href="#DejaVuSans-29"
             id="use368" />
        </g>
      </g>
      <g
         id="patch_9">
        <path
           d="M 612.611831 357.955681  Q 603.075503 359.757091 594.63778 361.350974  "
           style="fill:none;stroke:#000000;stroke-linecap:round;"
           id="path371" />
        <path
           d="M 601.520537 363.307416  L 594.63778 361.350974  L 600.332588 357.018634  "
           style="fill:none;stroke:#000000;stroke-linecap:round;"
           id="path373" />
      </g>
      <g
         id="text_20">
        <!-- $b(y)$ -->
        <defs
           id="defs376">
          <path
             d="M 49.515625 33.40625  Q 49.515625 40.484375 46.265625 44.484375  Q 43.015625 48.484375 37.3125 48.484375  Q 33.15625 48.484375 29.515625 46.453125  Q 25.875 44.4375 23.1875 40.578125  Q 20.359375 36.53125 18.71875 31.171875  Q 17.09375 25.828125 17.09375 20.515625  Q 17.09375 13.765625 20.28125 9.9375  Q 23.484375 6.109375 29.109375 6.109375  Q 33.34375 6.109375 36.953125 8.078125  Q 40.578125 10.0625 43.3125 13.921875  Q 46.09375 17.921875 47.796875 23.234375  Q 49.515625 28.5625 49.515625 33.40625  M 21.578125 46.390625  Q 24.90625 50.875 29.90625 53.4375  Q 34.90625 56 40.375 56  Q 48.78125 56 53.734375 50.328125  Q 58.6875 44.671875 58.6875 35.015625  Q 58.6875 27.09375 55.78125 19.671875  Q 52.875 12.25 47.515625 6.5  Q 44 2.6875 39.40625 0.625  Q 34.8125 -1.421875 29.78125 -1.421875  Q 24.46875 -1.421875 20.5625 1.015625  Q 16.65625 3.46875 14.203125 8.296875  L 12.59375 0  L 3.609375 0  L 18.40625 75.984375  L 27.390625 75.984375  z "
             id="DejaVuSans-Oblique-62" />
        </defs>
        <g
           transform="translate(616.574643 358.5696)scale(0.16 -0.16)"
           id="g379">
          <use
             transform="translate(0 0.015625)"
             xlink:href="#DejaVuSans-Oblique-62"
             id="use381" />
          <use
             transform="translate(63.476562 0.015625)"
             xlink:href="#DejaVuSans-28"
             id="use383" />
          <use
             transform="translate(102.490234 0.015625)"
             xlink:href="#DejaVuSans-Oblique-79"
             id="use385" />
          <use
             transform="translate(161.669922 0.015625)"
             xlink:href="#DejaVuSans-29"
             id="use387" />
        </g>
      </g>
      <g
         id="patch_10">
        <path
           d="M 373.736429 74.236541  Q 380.863543 76.440282 386.922517 78.313749  "
           style="fill:none;stroke:#000000;stroke-linecap:round;"
           id="path390" />
        <path
           d="M 381.753437 73.365961  L 386.922517 78.313749  L 379.862839 79.480341  "
           style="fill:none;stroke:#000000;stroke-linecap:round;"
           id="path392" />
      </g>
      <g
         id="text_21">
        <!-- $a$ -->
        <g
           transform="translate(359.905167 75.9085)scale(0.16 -0.16)"
           id="g395">
          <use
             xlink:href="#DejaVuSans-Oblique-61"
             id="use397" />
        </g>
      </g>
      <g
         id="patch_11">
        <path
           d="M 818.208431 90.148759  Q 814.727714 85.492986 811.916449 81.732665  "
           style="fill:none;stroke:#000000;stroke-linecap:round;"
           id="path400" />
        <path
           d="M 813.185681 88.774614  L 811.916449 81.732665  L 818.311547 84.942449  "
           style="fill:none;stroke:#000000;stroke-linecap:round;"
           id="path402" />
      </g>
      <g
         id="text_22">
        <!-- $b',b$ -->
        <defs
           id="defs405">
          <path
             d="M 3.515625 5.421875  Q 2.875 5.609375 2.875 6.390625  L 15.09375 51.8125  Q 15.671875 53.65625 17.078125 54.78125  Q 18.5 55.90625 20.3125 55.90625  Q 22.65625 55.90625 24.4375 54.359375  Q 26.21875 52.828125 26.21875 50.484375  Q 26.21875 49.46875 25.6875 48.1875  L 7.625 4.984375  Q 7.28125 4.296875 6.6875 4.296875  Q 6.15625 4.296875 5 4.78125  Q 3.859375 5.28125 3.515625 5.421875  "
             id="Cmsy10-30" />
          <path
             d="M 11.71875 12.40625  L 22.015625 12.40625  L 22.015625 4  L 14.015625 -11.625  L 7.71875 -11.625  L 11.71875 4  z "
             id="DejaVuSans-2c" />
        </defs>
        <g
           transform="translate(810.049909 105.9085)scale(0.16 -0.16)"
           id="g409">
          <use
             transform="translate(0 0.584375)"
             xlink:href="#DejaVuSans-Oblique-62"
             id="use411" />
          <use
             transform="translate(70.924271 38.865625)scale(0.7)"
             xlink:href="#Cmsy10-30"
             id="use413" />
          <use
             transform="translate(92.90181 0.584375)"
             xlink:href="#DejaVuSans-2c"
             id="use415" />
          <use
             transform="translate(144.171341 0.584375)"
             xlink:href="#DejaVuSans-Oblique-62"
             id="use417" />
        </g>
      </g>
      <g
         id="patch_12">
        <path
           d="M 167.424584 442.097222  Q 159.884547 439.870403 153.416761 437.960255  "
           style="fill:none;stroke:#000000;stroke-linecap:round;"
           id="path420" />
        <path
           d="M 158.648314 442.84194  L 153.416761 437.960255  L 160.461041 436.704023  "
           style="fill:none;stroke:#000000;stroke-linecap:round;"
           id="path422" />
      </g>
      <g
         id="text_23">
        <!-- $a'$ -->
        <g
           transform="translate(171.342663 449.7485)scale(0.16 -0.16)"
           id="g425">
          <use
             transform="translate(0 0.584375)"
             xlink:href="#DejaVuSans-Oblique-61"
             id="use427" />
          <use
             transform="translate(65.929193 38.865625)scale(0.7)"
             xlink:href="#Cmsy10-30"
             id="use429" />
        </g>
      </g>
      <g
         id="text_24">
        <!-- $f(x) = sin(x)$ -->
        <defs
           id="defs432">
          <path
             d="M 10.59375 45.40625  L 73.1875 45.40625  L 73.1875 37.203125  L 10.59375 37.203125  z M 10.59375 25.484375  L 73.1875 25.484375  L 73.1875 17.1875  L 10.59375 17.1875  z "
             id="DejaVuSans-3d" />
          <path
             d="M 50 53.078125  L 48.296875 44.578125  Q 44.734375 46.53125 40.765625 47.5  Q 36.8125 48.484375 32.625 48.484375  Q 25.53125 48.484375 21.453125 46.0625  Q 17.390625 43.65625 17.390625 39.5  Q 17.390625 34.671875 26.859375 32.078125  Q 27.59375 31.890625 27.9375 31.78125  L 30.8125 30.90625  Q 39.796875 28.421875 42.796875 25.6875  Q 45.796875 22.953125 45.796875 18.21875  Q 45.796875 9.515625 38.890625 4.046875  Q 31.984375 -1.421875 20.796875 -1.421875  Q 16.453125 -1.421875 11.671875 -0.578125  Q 6.890625 0.25 1.125 2  L 2.875 11.28125  Q 7.8125 8.734375 12.59375 7.421875  Q 17.390625 6.109375 21.78125 6.109375  Q 28.375 6.109375 32.5 8.9375  Q 36.625 11.765625 36.625 16.109375  Q 36.625 20.796875 25.78125 23.6875  L 24.859375 23.921875  L 21.78125 24.703125  Q 14.9375 26.515625 11.765625 29.46875  Q 8.59375 32.421875 8.59375 37.015625  Q 8.59375 45.75 15.15625 50.875  Q 21.734375 56 33.015625 56  Q 37.453125 56 41.671875 55.265625  Q 45.90625 54.546875 50 53.078125  "
             id="DejaVuSans-Oblique-73" />
          <path
             d="M 18.3125 75.984375  L 27.296875 75.984375  L 25.09375 64.59375  L 16.109375 64.59375  z M 14.203125 54.6875  L 23.1875 54.6875  L 12.5 0  L 3.515625 0  z "
             id="DejaVuSans-Oblique-69" />
          <path
             d="M 55.71875 33.015625  L 49.3125 0  L 40.28125 0  L 46.6875 32.671875  Q 47.125 34.96875 47.359375 36.71875  Q 47.609375 38.484375 47.609375 39.5  Q 47.609375 43.609375 45.015625 45.890625  Q 42.4375 48.1875 37.796875 48.1875  Q 30.5625 48.1875 25.34375 43.375  Q 20.125 38.578125 18.5 30.328125  L 12.5 0  L 3.515625 0  L 14.109375 54.6875  L 23.09375 54.6875  L 21.296875 46.09375  Q 25.046875 50.828125 30.3125 53.40625  Q 35.59375 56 41.40625 56  Q 48.640625 56 52.609375 52.09375  Q 56.59375 48.1875 56.59375 41.109375  Q 56.59375 39.359375 56.375 37.359375  Q 56.15625 35.359375 55.71875 33.015625  "
             id="DejaVuSans-Oblique-6e" />
        </defs>
        <g
           transform="translate(424.773 55.344)scale(0.192 -0.192)"
           id="g438">
          <use
             transform="translate(0 0.015625)"
             xlink:href="#DejaVuSans-Oblique-66"
             id="use440" />
          <use
             transform="translate(35.205078 0.015625)"
             xlink:href="#DejaVuSans-28"
             id="use442" />
          <use
             transform="translate(74.21875 0.015625)"
             xlink:href="#DejaVuSans-Oblique-78"
             id="use444" />
          <use
             transform="translate(133.398438 0.015625)"
             xlink:href="#DejaVuSans-29"
             id="use446" />
          <use
             transform="translate(191.894531 0.015625)"
             xlink:href="#DejaVuSans-3d"
             id="use448" />
          <use
             transform="translate(295.166016 0.015625)"
             xlink:href="#DejaVuSans-Oblique-73"
             id="use450" />
          <use
             transform="translate(347.265625 0.015625)"
             xlink:href="#DejaVuSans-Oblique-69"
             id="use452" />
          <use
             transform="translate(375.048828 0.015625)"
             xlink:href="#DejaVuSans-Oblique-6e"
             id="use454" />
          <use
             transform="translate(438.427734 0.015625)"
             xlink:href="#DejaVuSans-28"
             id="use456" />
          <use
             transform="translate(477.441406 0.015625)"
             xlink:href="#DejaVuSans-Oblique-78"
             id="use458" />
          <use
             transform="translate(536.621094 0.015625)"
             xlink:href="#DejaVuSans-29"
             id="use460" />
        </g>
      </g>
    </g>
  </g>
  <defs
     id="defs462">
    <clipPath
       id="pcdb1372a97">
      <rect
         height="393.624"
         width="725.958"
         x="117.09"
         y="61.344"
         id="rect465" />
    </clipPath>
  </defs>
  <path
     style="fill:none;fill-rule:evenodd;stroke:#000000;stroke-width:0.80000001px;stroke-linecap:butt;stroke-linejoin:miter;stroke-opacity:1"
     d="m 809.9356,77.026222 c -419.47076,0 -419.47076,0 -419.47076,0"
     id="path4599"
     inkscape:connector-curvature="0" />
  <path
     style="opacity:0.2;fill:#000000;fill-opacity:1;stroke:none;stroke-width:1.875;stroke-linecap:butt;stroke-linejoin:miter;stroke-miterlimit:4;stroke-dasharray:5.625, 1.87500000000000000;stroke-dashoffset:17.0625;stroke-opacity:1"
     d="m 190.25777,535.47074 c 1.54671,-12.84768 7.21308,-36.02402 13.3176,-54.47119 27.77754,-83.94044 87.36237,-178.64646 169.61775,-269.59584 21.24173,-23.48687 73.80927,-75.08683 96.83355,-95.05119 10.16,-8.80974 18.47273,-16.810783 18.47273,-17.780094 0,-1.413901 51.70189,-1.762384 261.47199,-1.762384 143.8096,0 261.47201,0.250732 261.47201,0.557183 0,0.655946 -86.10441,73.647255 -121.32302,102.846375 C 804.72239,271.01555 732.92579,325.85129 669.08939,369.02941 500.84886,482.82512 355.42175,538.60229 212.95743,543.97446 l -23.8316,0.89867 1.13194,-9.40239 z"
     id="path4601"
     inkscape:connector-curvature="0"
     transform="scale(0.8,0.8)" />
  <path
     inkscape:connector-curvature="0"
     transform="translate(-83.698899,-2.2087024)"
     clip-path="url(#pcdb1372a97-3)"
     d="m 570.23283,437.076 0.13142,-2.72013 0.4391,-4.50968 0.75612,-5.44026 1.08251,-6.15608 1.41195,-6.72874 1.73034,-7.15823 2.06465,-7.58772 2.39494,-7.94564 2.715,-8.23197 3.04523,-8.51829 3.35864,-8.73305 3.6793,-8.94779 4.00841,-9.16253 4.34701,-9.37729 4.6601,-9.52044 4.97897,-9.66362 5.3045,-9.80677 5.59598,-9.87836 5.93346,-10.02153 6.2347,-10.0931 6.54002,-10.16469 6.85006,-10.23627 7.16546,-10.30786 7.48684,-10.37943 7.76034,-10.37944 8.09171,-10.45102 8.37257,-10.45102 8.71626,-10.5226 9.00673,-10.5226 9.30089,-10.5226 9.59925,-10.5226 9.90237,-10.5226 10.14033,-10.45102 10.45039,-10.45102 10.76687,-10.45101 11.0133,-10.37944 11.2606,-10.307853 11.59084,-10.307853 11.84588,-10.236272 0.084,-0.07158 0,0"
     style="fill:none;stroke:#000000;stroke-width:1.5;stroke-linecap:square;stroke-linejoin:round;opacity:0.5"
     id="path316-7" />
  <path
     inkscape:connector-curvature="0"
     transform="translate(-164.52369,-2.6736607)"
     clip-path="url(#pcdb1372a97-3-5)"
     d="m 570.23283,437.076 0.13142,-2.72013 0.4391,-4.50968 0.75612,-5.44026 1.08251,-6.15608 1.41195,-6.72874 1.73034,-7.15823 2.06465,-7.58772 2.39494,-7.94564 2.715,-8.23197 3.04523,-8.51829 3.35864,-8.73305 3.6793,-8.94779 4.00841,-9.16253 4.34701,-9.37729 4.6601,-9.52044 4.97897,-9.66362 5.3045,-9.80677 5.59598,-9.87836 5.93346,-10.02153 6.2347,-10.0931 6.54002,-10.16469 6.85006,-10.23627 7.16546,-10.30786 7.48684,-10.37943 7.76034,-10.37944 8.09171,-10.45102 8.37257,-10.45102 8.71626,-10.5226 9.00673,-10.5226 9.30089,-10.5226 9.59925,-10.5226 9.90237,-10.5226 10.14033,-10.45102 10.45039,-10.45102 10.76687,-10.45101 11.0133,-10.37944 11.2606,-10.307853 11.59084,-10.307853 11.84588,-10.236272 0.084,-0.07158 0,0"
     style="fill:none;stroke:#000000;stroke-width:1.5;stroke-linecap:square;stroke-linejoin:round;opacity:0.5"
     id="path316-7-5" />
  <path
     inkscape:connector-curvature="0"
     transform="translate(-254.12369,-2.6736607)"
     clip-path="url(#pcdb1372a97-3-5-6)"
     d="m 570.23283,437.076 0.13142,-2.72013 0.4391,-4.50968 0.75612,-5.44026 1.08251,-6.15608 1.41195,-6.72874 1.73034,-7.15823 2.06465,-7.58772 2.39494,-7.94564 2.715,-8.23197 3.04523,-8.51829 3.35864,-8.73305 3.6793,-8.94779 4.00841,-9.16253 4.34701,-9.37729 4.6601,-9.52044 4.97897,-9.66362 5.3045,-9.80677 5.59598,-9.87836 5.93346,-10.02153 6.2347,-10.0931 6.54002,-10.16469 6.85006,-10.23627 7.16546,-10.30786 7.48684,-10.37943 7.76034,-10.37944 8.09171,-10.45102 8.37257,-10.45102 8.71626,-10.5226 9.00673,-10.5226 9.30089,-10.5226 9.59925,-10.5226 9.90237,-10.5226 10.14033,-10.45102 10.45039,-10.45102 10.76687,-10.45101 11.0133,-10.37944 11.2606,-10.307853 11.59084,-10.307853 11.84588,-10.236272 0.084,-0.07158 0,0"
     style="fill:none;stroke:#000000;stroke-width:1.5;stroke-linecap:square;stroke-linejoin:round;opacity:0.5"
     id="path316-7-5-9" />
  <path
     inkscape:connector-curvature="0"
     transform="translate(-335.72369,-2.6736607)"
     clip-path="url(#pcdb1372a97-3-5-6-1)"
     d="m 570.23283,437.076 0.13142,-2.72013 0.4391,-4.50968 0.75612,-5.44026 1.08251,-6.15608 1.41195,-6.72874 1.73034,-7.15823 2.06465,-7.58772 2.39494,-7.94564 2.715,-8.23197 3.04523,-8.51829 3.35864,-8.73305 3.6793,-8.94779 4.00841,-9.16253 4.34701,-9.37729 4.6601,-9.52044 4.97897,-9.66362 5.3045,-9.80677 5.59598,-9.87836 5.93346,-10.02153 6.2347,-10.0931 6.54002,-10.16469 6.85006,-10.23627 7.16546,-10.30786 7.48684,-10.37943 7.76034,-10.37944 8.09171,-10.45102 8.37257,-10.45102 8.71626,-10.5226 9.00673,-10.5226 9.30089,-10.5226 9.59925,-10.5226 9.90237,-10.5226 10.14033,-10.45102 10.45039,-10.45102 10.76687,-10.45101 11.0133,-10.37944 11.2606,-10.307853 11.59084,-10.307853 11.84588,-10.236272 0.084,-0.07158 0,0"
     style="fill:none;stroke:#000000;stroke-width:1.5;stroke-linecap:square;stroke-linejoin:round;opacity:0.5"
     id="path316-7-5-9-7" />
  <path
     style="fill:none;fill-rule:evenodd;stroke:#000000;stroke-width:0.80000001px;stroke-linecap:butt;stroke-linejoin:miter;stroke-opacity:1"
     d="m 234.2789,429.56019 c -83.67104,0 -83.67104,0 -83.67104,0"
     id="path4687"
     inkscape:connector-curvature="0" />
  <path
     style="fill:none;fill-rule:evenodd;stroke:#000000;stroke-width:0.80000001px;stroke-linecap:butt;stroke-linejoin:miter;stroke-opacity:1"
     d="m 319.06555,408.36353 c -80.32419,0 -80.32419,0 -80.32419,0"
     id="path4689"
     inkscape:connector-curvature="0" />
  <path
     style="fill:none;fill-rule:evenodd;stroke:#000000;stroke-width:0.80000001px;stroke-linecap:butt;stroke-linejoin:miter;stroke-opacity:1"
     d="m 423.93326,362.62336 c -90.36472,0 -90.36472,0 -90.36472,0"
     id="path4691"
     inkscape:connector-curvature="0" />
  <path
     style="opacity:1;fill:#ffffff;fill-opacity:1;stroke:none;stroke-width:1.875;stroke-linecap:butt;stroke-linejoin:miter;stroke-miterlimit:4;stroke-dasharray:5.625, 1.87500000000000000;stroke-dashoffset:17.0625;stroke-opacity:1"
     d="m 296.05602,531.6783 c 0,-1.67019 0.69195,-7.01018 1.53767,-11.86666 l 1.53767,-8.82997 45.52729,0.16177 c 25.04001,0.089 44.27222,0.47847 42.73825,0.86554 -1.53397,0.38708 -4.35787,1.35151 -6.27533,2.14317 -1.91746,0.79166 -4.74036,1.67708 -6.27312,1.96761 -3.41008,0.64635 -21.51833,5.84949 -24.40626,7.01277 -1.15047,0.46342 -2.4673,0.77466 -2.92628,0.69165 -0.45898,-0.083 -4.22418,0.7867 -8.3671,1.9327 -4.14293,1.14599 -9.10143,2.37588 -11.01889,2.73309 -1.91746,0.3572 -5.05513,1.04742 -6.97259,1.53382 -1.91746,0.48639 -4.42759,1.06795 -5.57807,1.29233 -1.15048,0.22439 -3.66061,0.72326 -5.57807,1.1086 -12.42054,2.49611 -13.94517,2.4145 -13.94517,-0.74642 z"
     id="path4695"
     inkscape:connector-curvature="0"
     transform="scale(0.8,0.8)" />
  <path
     style="opacity:1;fill:#ffffff;fill-opacity:1;stroke:none;stroke-width:1.875;stroke-linecap:butt;stroke-linejoin:miter;stroke-miterlimit:4;stroke-dasharray:5.625, 1.875;stroke-dashoffset:17.0625;stroke-opacity:1"
     d="m 403.06808,507.36203 c -1.00416,-1.00416 1.47503,-9.7976 9.69325,-34.38095 l 6.41008,-19.17461 53.14135,0.0706 53.14135,0.0706 -12.55065,6.3738 c -6.90286,3.50558 -12.76114,6.92916 -13.01839,7.60795 -0.25726,0.67878 -1.04168,0.87944 -1.74315,0.44591 -0.70148,-0.43354 -1.27541,-0.12368 -1.27541,0.68857 0,0.81225 -0.47065,1.33446 -1.04589,1.16046 -1.66798,-0.50451 -14.28281,5.07989 -14.28858,6.32535 -0.003,0.62051 -0.63276,0.74035 -1.39974,0.26633 -0.76698,-0.47402 -1.39452,-0.19729 -1.39452,0.61496 0,0.81225 -0.47065,1.37388 -1.04588,1.24806 -2.08286,-0.45555 -8.71574,1.95611 -8.71574,3.16897 0,0.68384 -0.47065,1.1404 -1.04589,1.01459 -2.08285,-0.45556 -8.71573,1.9561 -8.71573,3.16896 0,0.68384 -0.47065,1.1404 -1.04589,1.01459 -1.80825,-0.3955 -8.71573,1.88081 -8.71573,2.8722 0,0.52062 -1.35548,1.04869 -3.01219,1.17349 -1.6567,0.12479 -3.38242,0.72898 -3.83492,1.34264 -0.4525,0.61366 -1.76403,1.31337 -2.91451,1.5549 -4.04397,0.849 -32.78877,11.68051 -34.29398,12.92253 -0.83756,0.6911 -1.88571,0.89367 -2.32924,0.45014 z"
     id="path4697"
     inkscape:connector-curvature="0"
     transform="scale(0.8,0.8)" />
  <path
     style="fill:none;fill-rule:evenodd;stroke:#000000;stroke-width:0.78911513px;stroke-linecap:butt;stroke-linejoin:miter;stroke-opacity:1"
     d="m 537.72586,294.57092 c -80.32419,0 -80.32419,0 -80.32419,0"
     id="path4703"
     inkscape:connector-curvature="0" />
  <path
     style="opacity:1;fill:#ffffff;fill-opacity:1;stroke:none;stroke-width:1.875;stroke-linecap:butt;stroke-linejoin:miter;stroke-miterlimit:4;stroke-dasharray:5.625, 1.875;stroke-dashoffset:17.0625;stroke-opacity:1"
     d="m 534.0581,450.0062 c -1.48833,-2.40817 17.11963,-41.83215 35.55408,-75.32709 l 3.25552,-5.91519 48.11085,0.014 48.11084,0.014 -11.82175,7.72629 c -6.50197,4.24946 -12.29704,8.47382 -12.87794,9.38747 -0.58089,0.91365 -1.08574,1.03364 -1.12187,0.26666 -0.0361,-0.76699 -0.98705,-0.1764 -2.11313,1.31242 -1.12609,1.48882 -2.04743,2.24309 -2.04743,1.67615 0,-1.12834 -12.72179,7.20832 -14.10108,9.24052 -0.46925,0.69137 -1.41055,1.26063 -2.09178,1.26503 -2.01232,0.013 -8.90845,4.4369 -8.90845,5.71483 0,0.64688 -0.5325,0.84705 -1.18333,0.44481 -0.65083,-0.40223 -2.53342,0.52648 -4.18355,2.0638 -1.65012,1.53733 -3.00022,2.46369 -3.00022,2.05859 0,-1.00929 -18.61523,10.42098 -19.67916,12.08355 -0.46924,0.73327 -1.2701,1.24941 -1.77969,1.14697 -1.76362,-0.35453 -14.7986,7.3696 -14.7986,8.76919 0,0.77292 -0.41004,0.99527 -0.9112,0.49411 -0.97031,-0.97031 -10.24652,4.18305 -11.96673,6.64807 -0.5635,0.80747 -1.03415,0.95143 -1.04589,0.3199 -0.025,-1.34413 -15.573,7.23247 -17.08284,9.42325 -0.62604,0.9084 -1.04114,0.94421 -1.06724,0.0921 -0.0235,-0.76699 -0.58219,-0.54311 -1.24156,0.49751 -0.66694,1.05257 -1.55778,1.31125 -2.00785,0.58303 z"
     id="path4705"
     inkscape:connector-curvature="0"
     transform="scale(0.8,0.8)" />
  <path
     style="opacity:1;fill:#ffffff;fill-opacity:1;stroke:none;stroke-width:1.875;stroke-linecap:butt;stroke-linejoin:miter;stroke-miterlimit:4;stroke-dasharray:5.625, 1.875;stroke-dashoffset:17.0625;stroke-opacity:1"
     d="m 682.47461,355.14437 c 48.52575,-80.4623 123.13867,-166.88962 210.82031,-244.20221 l 16.39423,-14.455478 49.7544,1.036505 49.75435,1.036506 -4.9081,4.354617 c -2.6995,2.39503 -8.92496,7.96292 -13.83429,12.37309 -4.90934,4.41016 -9.30833,8.01847 -9.77554,8.01847 -0.4672,0 -2.53564,1.72572 -4.59652,3.83492 -4.098,4.19408 -8.56518,8.04715 -20.76939,17.91415 -4.41016,3.56558 -8.01847,7.03355 -8.01847,7.70659 0,0.67305 -0.77764,1.22372 -1.7281,1.22372 -0.95045,0 -3.30369,1.51197 -5.22944,3.35994 -9.17836,8.8077 -12.87641,11.97975 -13.96627,11.97975 -0.65233,0 -2.42007,1.56883 -3.92836,3.48629 -1.50828,1.91746 -3.33268,3.4863 -4.05425,3.4863 -0.72156,0 -2.98036,1.72571 -5.01955,3.83492 -2.03919,2.10921 -5.66343,5.40375 -8.05384,7.32122 -2.39042,1.91746 -6.19924,5.05512 -8.46402,6.97258 -2.2648,1.91746 -6.04044,5.05513 -8.39034,6.97259 -2.34989,1.91746 -5.79035,4.89824 -7.64549,6.62395 -1.85515,1.72572 -3.8151,3.14436 -4.35547,3.15254 -0.54038,0.008 -4.0374,2.83208 -7.77115,6.27533 -3.73375,3.44325 -7.18518,6.26715 -7.66984,6.27533 -0.48467,0.008 -3.9361,2.83207 -7.66985,6.27532 -3.73375,3.44325 -7.33675,6.26046 -8.00666,6.26046 -0.66991,0 -2.00181,1.25507 -2.95979,2.78903 -0.95798,1.53397 -2.52681,2.78904 -3.4863,2.78904 -0.95948,0 -2.52831,1.25506 -3.48629,2.78903 -0.95798,1.53397 -2.52681,2.78904 -3.48629,2.78904 -0.95949,0 -2.52832,1.25506 -3.48629,2.78903 -0.95798,1.53397 -2.52681,2.78904 -3.4863,2.78904 -0.95948,0 -2.52831,1.25506 -3.48629,2.78903 -0.95798,1.53397 -2.52681,2.78904 -3.48629,2.78904 -0.95949,0 -2.52832,1.25506 -3.4863,2.78903 -0.95798,1.53397 -2.49655,2.78904 -3.41904,2.78904 -0.92249,0 -2.55354,1.25107 -3.62455,2.78016 -1.07102,1.52909 -2.23224,2.49522 -2.58049,2.14697 -0.34825,-0.34825 -3.35206,1.85212 -6.67512,4.88968 -3.32306,3.03758 -6.46752,5.52288 -6.98769,5.52288 -0.52017,0 -3.24788,2.10865 -6.06158,4.68589 -2.8137,2.57725 -5.40298,4.39874 -5.75396,4.04776 -0.35098,-0.35097 -1.46011,0.67803 -2.46473,2.28669 -1.00462,1.60866 -2.31887,2.92483 -2.92055,2.92483 -1.75819,0 -27.52001,19.74044 -27.52001,21.08767 0,0.67353 -0.47065,1.06994 -1.04589,0.88088 -1.44641,-0.47533 -14.2938,8.89387 -14.2938,10.42405 0,0.68222 -0.58459,0.87912 -1.2991,0.43753 -0.71451,-0.44159 -2.18274,0.45868 -3.26275,2.0006 -1.08,1.54192 -2.25658,2.51055 -2.61462,2.15251 -0.35804,-0.35803 -2.69373,1.21479 -5.19042,3.49516 -2.4967,2.28039 -5.03662,4.14615 -5.64427,4.14615 -0.60765,0 -2.72655,1.50297 -4.70868,3.33994 -1.98212,1.83697 -3.83493,3.10887 -4.11735,2.82645 -0.28242,-0.28243 -2.38448,1.19538 -4.67125,3.284 -2.28676,2.08864 -4.76143,4.0322 -5.49926,4.31902 -0.73784,0.28682 -3.96472,2.32631 -7.17085,4.53218 -3.20613,2.20588 -6.23809,4.01069 -6.73769,4.01069 -0.49961,0 0.51084,-2.35325 2.24544,-5.22944 z"
     id="path4707"
     inkscape:connector-curvature="0"
     transform="scale(0.8,0.8)" />
  <path
     style="opacity:1;fill:#ffffff;fill-opacity:1;stroke:none;stroke-width:1.875;stroke-linecap:butt;stroke-linejoin:miter;stroke-miterlimit:4;stroke-dasharray:5.625, 1.875;stroke-dashoffset:17.0625;stroke-opacity:1"
     d=""
     id="path4709"
     inkscape:connector-curvature="0"
     transform="scale(0.8,0.8)" />
  <path
     style="opacity:1;fill:#ffffff;fill-opacity:1;stroke:none;stroke-width:1.875;stroke-linecap:butt;stroke-linejoin:miter;stroke-miterlimit:4;stroke-dasharray:5.625, 1.875;stroke-dashoffset:17.0625;stroke-opacity:1"
     d="m 188.52998,543.89618 c 0,-0.38349 0.31377,-0.69725 0.69726,-0.69725 0.38349,0 0.69726,-1.25507 0.69726,-2.78904 l 0,-2.78903 43.40435,0.055 c 23.87239,0.0303 43.09058,0.17301 42.70709,0.31719 -1.47329,0.55388 -24.30699,3.10513 -36.95471,4.12901 -11.49885,0.93087 -41.5905,2.47134 -48.27534,2.47134 -1.25175,0 -2.27591,-0.31376 -2.27591,-0.69726 z"
     id="path4711"
     inkscape:connector-curvature="0"
     transform="scale(0.8,0.8)" />
</svg>
