<?xml version="1.0" encoding="UTF-8" standalone="no"?>
<!-- Created with matplotlib (http://matplotlib.org/) -->

<svg
   xmlns:dc="http://purl.org/dc/elements/1.1/"
   xmlns:cc="http://creativecommons.org/ns#"
   xmlns:rdf="http://www.w3.org/1999/02/22-rdf-syntax-ns#"
   xmlns:svg="http://www.w3.org/2000/svg"
   xmlns="http://www.w3.org/2000/svg"
   xmlns:xlink="http://www.w3.org/1999/xlink"
   xmlns:sodipodi="http://sodipodi.sourceforge.net/DTD/sodipodi-0.dtd"
   xmlns:inkscape="http://www.inkscape.org/namespaces/inkscape"
   height="511pt"
   version="1.1"
   viewBox="0 0 936 511"
   width="936pt"
   id="svg2"
   inkscape:version="0.91 r13725"
   sodipodi:docname="EX3.svg">
  <metadata
     id="metadata398">
    <rdf:RDF>
      <cc:Work
         rdf:about="">
        <dc:format>image/svg+xml</dc:format>
        <dc:type
           rdf:resource="http://purl.org/dc/dcmitype/StillImage" />
        <dc:title></dc:title>
      </cc:Work>
    </rdf:RDF>
  </metadata>
  <sodipodi:namedview
     pagecolor="#ffffff"
     bordercolor="#666666"
     borderopacity="1"
     objecttolerance="10"
     gridtolerance="10"
     guidetolerance="10"
     inkscape:pageopacity="0"
     inkscape:pageshadow="2"
     inkscape:window-width="1301"
     inkscape:window-height="744"
     id="namedview396"
     showgrid="false"
     inkscape:zoom="0.71709402"
     inkscape:cx="585"
     inkscape:cy="319.375"
     inkscape:window-x="65"
     inkscape:window-y="24"
     inkscape:window-maximized="1"
     inkscape:current-layer="svg2" />
  <defs
     id="defs4">
    <style
       type="text/css"
       id="style6">
*{stroke-linecap:butt;stroke-linejoin:round;}
  </style>
    <clipPath
       id="p0e46492fd4-3">
      <rect
         height="393.62399"
         width="725.95801"
         x="117.09"
         y="61.344002"
         id="rect394-6" />
    </clipPath>
    <clipPath
       id="p0e46492fd4-3-5">
      <rect
         height="393.62399"
         width="725.95801"
         x="117.09"
         y="61.344002"
         id="rect394-6-3" />
    </clipPath>
  </defs>
  <g
     id="figure_1">
    <g
       id="patch_1">
      <path
         d="M 0 511.2  L 936.72 511.2  L 936.72 0  L 0 0  z "
         style="fill:#ffffff;"
         id="path10" />
    </g>
    <g
       id="axes_1">
      <g
         id="patch_2">
        <path
           d="M 117.09 454.968  L 843.048 454.968  L 843.048 61.344  L 117.09 61.344  z "
           style="fill:#ffffff;"
           id="path14" />
      </g>
      <g
         id="matplotlib.axis_1">
        <g
           id="xtick_1">
          <g
             id="line2d_1">
            <defs
               id="defs19">
              <path
                 d="M 0 0  L 0 3.5  "
                 id="m4f37b659fb"
                 style="stroke:#000000;stroke-width:0.8;" />
            </defs>
            <g
               id="g22">
              <use
                 style="stroke:#000000;stroke-width:0.8;"
                 x="168.944143"
                 xlink:href="#m4f37b659fb"
                 y="454.968"
                 id="use24" />
            </g>
          </g>
          <g
             id="text_1">
            <!-- −2 -->
            <defs
               id="defs27">
              <path
                 d="M 10.59375 35.5  L 73.1875 35.5  L 73.1875 27.203125  L 10.59375 27.203125  z "
                 id="DejaVuSans-2212" />
              <path
                 d="M 19.1875 8.296875  L 53.609375 8.296875  L 53.609375 0  L 7.328125 0  L 7.328125 8.296875  Q 12.9375 14.109375 22.625 23.890625  Q 32.328125 33.6875 34.8125 36.53125  Q 39.546875 41.84375 41.421875 45.53125  Q 43.3125 49.21875 43.3125 52.78125  Q 43.3125 58.59375 39.234375 62.25  Q 35.15625 65.921875 28.609375 65.921875  Q 23.96875 65.921875 18.8125 64.3125  Q 13.671875 62.703125 7.8125 59.421875  L 7.8125 69.390625  Q 13.765625 71.78125 18.9375 73  Q 24.125 74.21875 28.421875 74.21875  Q 39.75 74.21875 46.484375 68.546875  Q 53.21875 62.890625 53.21875 53.421875  Q 53.21875 48.921875 51.53125 44.890625  Q 49.859375 40.875 45.40625 35.40625  Q 44.1875 33.984375 37.640625 27.21875  Q 31.109375 20.453125 19.1875 8.296875  "
                 id="DejaVuSans-32" />
            </defs>
            <g
               transform="translate(157.150393 474.1255)scale(0.16 -0.16)"
               id="g31">
              <use
                 xlink:href="#DejaVuSans-2212"
                 id="use33" />
              <use
                 x="83.789062"
                 xlink:href="#DejaVuSans-32"
                 id="use35" />
            </g>
          </g>
        </g>
        <g
           id="xtick_2">
          <g
             id="line2d_2">
            <g
               id="g39">
              <use
                 style="stroke:#000000;stroke-width:0.8;"
                 x="272.652429"
                 xlink:href="#m4f37b659fb"
                 y="454.968"
                 id="use41" />
            </g>
          </g>
          <g
             id="text_2">
            <!-- −1 -->
            <defs
               id="defs44">
              <path
                 d="M 12.40625 8.296875  L 28.515625 8.296875  L 28.515625 63.921875  L 10.984375 60.40625  L 10.984375 69.390625  L 28.421875 72.90625  L 38.28125 72.90625  L 38.28125 8.296875  L 54.390625 8.296875  L 54.390625 0  L 12.40625 0  z "
                 id="DejaVuSans-31" />
            </defs>
            <g
               transform="translate(260.858679 474.1255)scale(0.16 -0.16)"
               id="g47">
              <use
                 xlink:href="#DejaVuSans-2212"
                 id="use49" />
              <use
                 x="83.789062"
                 xlink:href="#DejaVuSans-31"
                 id="use51" />
            </g>
          </g>
        </g>
        <g
           id="xtick_3">
          <g
             id="line2d_3">
            <g
               id="g55">
              <use
                 style="stroke:#000000;stroke-width:0.8;"
                 x="376.360714"
                 xlink:href="#m4f37b659fb"
                 y="454.968"
                 id="use57" />
            </g>
          </g>
          <g
             id="text_3">
            <!-- 0 -->
            <defs
               id="defs60">
              <path
                 d="M 31.78125 66.40625  Q 24.171875 66.40625 20.328125 58.90625  Q 16.5 51.421875 16.5 36.375  Q 16.5 21.390625 20.328125 13.890625  Q 24.171875 6.390625 31.78125 6.390625  Q 39.453125 6.390625 43.28125 13.890625  Q 47.125 21.390625 47.125 36.375  Q 47.125 51.421875 43.28125 58.90625  Q 39.453125 66.40625 31.78125 66.40625  M 31.78125 74.21875  Q 44.046875 74.21875 50.515625 64.515625  Q 56.984375 54.828125 56.984375 36.375  Q 56.984375 17.96875 50.515625 8.265625  Q 44.046875 -1.421875 31.78125 -1.421875  Q 19.53125 -1.421875 13.0625 8.265625  Q 6.59375 17.96875 6.59375 36.375  Q 6.59375 54.828125 13.0625 64.515625  Q 19.53125 74.21875 31.78125 74.21875  "
                 id="DejaVuSans-30" />
            </defs>
            <g
               transform="translate(371.270714 474.1255)scale(0.16 -0.16)"
               id="g63">
              <use
                 xlink:href="#DejaVuSans-30"
                 id="use65" />
            </g>
          </g>
        </g>
        <g
           id="xtick_4">
          <g
             id="line2d_4">
            <g
               id="g69">
              <use
                 style="stroke:#000000;stroke-width:0.8;"
                 x="480.069"
                 xlink:href="#m4f37b659fb"
                 y="454.968"
                 id="use71" />
            </g>
          </g>
          <g
             id="text_4">
            <!-- 1 -->
            <g
               transform="translate(474.979 474.1255)scale(0.16 -0.16)"
               id="g74">
              <use
                 xlink:href="#DejaVuSans-31"
                 id="use76" />
            </g>
          </g>
        </g>
        <g
           id="xtick_5">
          <g
             id="line2d_5">
            <g
               id="g80">
              <use
                 style="stroke:#000000;stroke-width:0.8;"
                 x="583.777286"
                 xlink:href="#m4f37b659fb"
                 y="454.968"
                 id="use82" />
            </g>
          </g>
          <g
             id="text_5">
            <!-- 2 -->
            <g
               transform="translate(578.687286 474.1255)scale(0.16 -0.16)"
               id="g85">
              <use
                 xlink:href="#DejaVuSans-32"
                 id="use87" />
            </g>
          </g>
        </g>
        <g
           id="xtick_6">
          <g
             id="line2d_6">
            <g
               id="g91">
              <use
                 style="stroke:#000000;stroke-width:0.8;"
                 x="687.485571"
                 xlink:href="#m4f37b659fb"
                 y="454.968"
                 id="use93" />
            </g>
          </g>
          <g
             id="text_6">
            <!-- 3 -->
            <defs
               id="defs96">
              <path
                 d="M 40.578125 39.3125  Q 47.65625 37.796875 51.625 33  Q 55.609375 28.21875 55.609375 21.1875  Q 55.609375 10.40625 48.1875 4.484375  Q 40.765625 -1.421875 27.09375 -1.421875  Q 22.515625 -1.421875 17.65625 -0.515625  Q 12.796875 0.390625 7.625 2.203125  L 7.625 11.71875  Q 11.71875 9.328125 16.59375 8.109375  Q 21.484375 6.890625 26.8125 6.890625  Q 36.078125 6.890625 40.9375 10.546875  Q 45.796875 14.203125 45.796875 21.1875  Q 45.796875 27.640625 41.28125 31.265625  Q 36.765625 34.90625 28.71875 34.90625  L 20.21875 34.90625  L 20.21875 43.015625  L 29.109375 43.015625  Q 36.375 43.015625 40.234375 45.921875  Q 44.09375 48.828125 44.09375 54.296875  Q 44.09375 59.90625 40.109375 62.90625  Q 36.140625 65.921875 28.71875 65.921875  Q 24.65625 65.921875 20.015625 65.03125  Q 15.375 64.15625 9.8125 62.3125  L 9.8125 71.09375  Q 15.4375 72.65625 20.34375 73.4375  Q 25.25 74.21875 29.59375 74.21875  Q 40.828125 74.21875 47.359375 69.109375  Q 53.90625 64.015625 53.90625 55.328125  Q 53.90625 49.265625 50.4375 45.09375  Q 46.96875 40.921875 40.578125 39.3125  "
                 id="DejaVuSans-33" />
            </defs>
            <g
               transform="translate(682.395571 474.1255)scale(0.16 -0.16)"
               id="g99">
              <use
                 xlink:href="#DejaVuSans-33"
                 id="use101" />
            </g>
          </g>
        </g>
        <g
           id="xtick_7">
          <g
             id="line2d_7">
            <g
               id="g105">
              <use
                 style="stroke:#000000;stroke-width:0.8;"
                 x="791.193857"
                 xlink:href="#m4f37b659fb"
                 y="454.968"
                 id="use107" />
            </g>
          </g>
          <g
             id="text_7">
            <!-- 4 -->
            <defs
               id="defs110">
              <path
                 d="M 37.796875 64.3125  L 12.890625 25.390625  L 37.796875 25.390625  z M 35.203125 72.90625  L 47.609375 72.90625  L 47.609375 25.390625  L 58.015625 25.390625  L 58.015625 17.1875  L 47.609375 17.1875  L 47.609375 0  L 37.796875 0  L 37.796875 17.1875  L 4.890625 17.1875  L 4.890625 26.703125  z "
                 id="DejaVuSans-34" />
            </defs>
            <g
               transform="translate(786.103857 474.1255)scale(0.16 -0.16)"
               id="g113">
              <use
                 xlink:href="#DejaVuSans-34"
                 id="use115" />
            </g>
          </g>
        </g>
        <g
           id="text_8">
          <!-- $x$ -->
          <defs
             id="defs118">
            <path
               d="M 60.015625 54.6875  L 34.90625 27.875  L 50.296875 0  L 39.984375 0  L 28.421875 21.6875  L 8.296875 0  L -2.59375 0  L 24.3125 28.8125  L 10.015625 54.6875  L 20.3125 54.6875  L 30.8125 34.90625  L 49.125 54.6875  z "
               id="DejaVuSans-Oblique-78" />
          </defs>
          <g
             transform="translate(475.269 493.6105)scale(0.16 -0.16)"
             id="g121">
            <use
               transform="translate(0 0.3125)"
               xlink:href="#DejaVuSans-Oblique-78"
               id="use123" />
          </g>
        </g>
      </g>
      <g
         id="matplotlib.axis_2">
        <g
           id="ytick_1">
          <g
             id="line2d_8">
            <defs
               id="defs128">
              <path
                 d="M 0 0  L -3.5 0  "
                 id="m9f272bda42"
                 style="stroke:#000000;stroke-width:0.8;" />
            </defs>
            <g
               id="g131">
              <use
                 style="stroke:#000000;stroke-width:0.8;"
                 x="117.09"
                 xlink:href="#m9f272bda42"
                 y="413.22"
                 id="use133" />
            </g>
          </g>
          <g
             id="text_9">
            <!-- 0.5 -->
            <defs
               id="defs136">
              <path
                 d="M 10.6875 12.40625  L 21 12.40625  L 21 0  L 10.6875 0  z "
                 id="DejaVuSans-2e" />
              <path
                 d="M 10.796875 72.90625  L 49.515625 72.90625  L 49.515625 64.59375  L 19.828125 64.59375  L 19.828125 46.734375  Q 21.96875 47.46875 24.109375 47.828125  Q 26.265625 48.1875 28.421875 48.1875  Q 40.625 48.1875 47.75 41.5  Q 54.890625 34.8125 54.890625 23.390625  Q 54.890625 11.625 47.5625 5.09375  Q 40.234375 -1.421875 26.90625 -1.421875  Q 22.3125 -1.421875 17.546875 -0.640625  Q 12.796875 0.140625 7.71875 1.703125  L 7.71875 11.625  Q 12.109375 9.234375 16.796875 8.0625  Q 21.484375 6.890625 26.703125 6.890625  Q 35.15625 6.890625 40.078125 11.328125  Q 45.015625 15.765625 45.015625 23.390625  Q 45.015625 31 40.078125 35.4375  Q 35.15625 39.890625 26.703125 39.890625  Q 22.75 39.890625 18.8125 39.015625  Q 14.890625 38.140625 10.796875 36.28125  z "
                 id="DejaVuSans-35" />
            </defs>
            <g
               transform="translate(84.645 419.29875)scale(0.16 -0.16)"
               id="g140">
              <use
                 xlink:href="#DejaVuSans-30"
                 id="use142" />
              <use
                 x="63.623047"
                 xlink:href="#DejaVuSans-2e"
                 id="use144" />
              <use
                 x="95.410156"
                 xlink:href="#DejaVuSans-35"
                 id="use146" />
            </g>
          </g>
        </g>
        <g
           id="ytick_2">
          <g
             id="line2d_9">
            <g
               id="g150">
              <use
                 style="stroke:#000000;stroke-width:0.8;"
                 x="117.09"
                 xlink:href="#m9f272bda42"
                 y="365.508"
                 id="use152" />
            </g>
          </g>
          <g
             id="text_10">
            <!-- 1.0 -->
            <g
               transform="translate(84.645 371.58675)scale(0.16 -0.16)"
               id="g155">
              <use
                 xlink:href="#DejaVuSans-31"
                 id="use157" />
              <use
                 x="63.623047"
                 xlink:href="#DejaVuSans-2e"
                 id="use159" />
              <use
                 x="95.410156"
                 xlink:href="#DejaVuSans-30"
                 id="use161" />
            </g>
          </g>
        </g>
        <g
           id="ytick_3">
          <g
             id="line2d_10">
            <g
               id="g165">
              <use
                 style="stroke:#000000;stroke-width:0.8;"
                 x="117.09"
                 xlink:href="#m9f272bda42"
                 y="317.796"
                 id="use167" />
            </g>
          </g>
          <g
             id="text_11">
            <!-- 1.5 -->
            <g
               transform="translate(84.645 323.87475)scale(0.16 -0.16)"
               id="g170">
              <use
                 xlink:href="#DejaVuSans-31"
                 id="use172" />
              <use
                 x="63.623047"
                 xlink:href="#DejaVuSans-2e"
                 id="use174" />
              <use
                 x="95.410156"
                 xlink:href="#DejaVuSans-35"
                 id="use176" />
            </g>
          </g>
        </g>
        <g
           id="ytick_4">
          <g
             id="line2d_11">
            <g
               id="g180">
              <use
                 style="stroke:#000000;stroke-width:0.8;"
                 x="117.09"
                 xlink:href="#m9f272bda42"
                 y="270.084"
                 id="use182" />
            </g>
          </g>
          <g
             id="text_12">
            <!-- 2.0 -->
            <g
               transform="translate(84.645 276.16275)scale(0.16 -0.16)"
               id="g185">
              <use
                 xlink:href="#DejaVuSans-32"
                 id="use187" />
              <use
                 x="63.623047"
                 xlink:href="#DejaVuSans-2e"
                 id="use189" />
              <use
                 x="95.410156"
                 xlink:href="#DejaVuSans-30"
                 id="use191" />
            </g>
          </g>
        </g>
        <g
           id="ytick_5">
          <g
             id="line2d_12">
            <g
               id="g195">
              <use
                 style="stroke:#000000;stroke-width:0.8;"
                 x="117.09"
                 xlink:href="#m9f272bda42"
                 y="222.372"
                 id="use197" />
            </g>
          </g>
          <g
             id="text_13">
            <!-- 2.5 -->
            <g
               transform="translate(84.645 228.45075)scale(0.16 -0.16)"
               id="g200">
              <use
                 xlink:href="#DejaVuSans-32"
                 id="use202" />
              <use
                 x="63.623047"
                 xlink:href="#DejaVuSans-2e"
                 id="use204" />
              <use
                 x="95.410156"
                 xlink:href="#DejaVuSans-35"
                 id="use206" />
            </g>
          </g>
        </g>
        <g
           id="ytick_6">
          <g
             id="line2d_13">
            <g
               id="g210">
              <use
                 style="stroke:#000000;stroke-width:0.8;"
                 x="117.09"
                 xlink:href="#m9f272bda42"
                 y="174.66"
                 id="use212" />
            </g>
          </g>
          <g
             id="text_14">
            <!-- 3.0 -->
            <g
               transform="translate(84.645 180.73875)scale(0.16 -0.16)"
               id="g215">
              <use
                 xlink:href="#DejaVuSans-33"
                 id="use217" />
              <use
                 x="63.623047"
                 xlink:href="#DejaVuSans-2e"
                 id="use219" />
              <use
                 x="95.410156"
                 xlink:href="#DejaVuSans-30"
                 id="use221" />
            </g>
          </g>
        </g>
        <g
           id="ytick_7">
          <g
             id="line2d_14">
            <g
               id="g225">
              <use
                 style="stroke:#000000;stroke-width:0.8;"
                 x="117.09"
                 xlink:href="#m9f272bda42"
                 y="126.948"
                 id="use227" />
            </g>
          </g>
          <g
             id="text_15">
            <!-- 3.5 -->
            <g
               transform="translate(84.645 133.02675)scale(0.16 -0.16)"
               id="g230">
              <use
                 xlink:href="#DejaVuSans-33"
                 id="use232" />
              <use
                 x="63.623047"
                 xlink:href="#DejaVuSans-2e"
                 id="use234" />
              <use
                 x="95.410156"
                 xlink:href="#DejaVuSans-35"
                 id="use236" />
            </g>
          </g>
        </g>
        <g
           id="ytick_8">
          <g
             id="line2d_15">
            <g
               id="g240">
              <use
                 style="stroke:#000000;stroke-width:0.8;"
                 x="117.09"
                 xlink:href="#m9f272bda42"
                 y="79.236"
                 id="use242" />
            </g>
          </g>
          <g
             id="text_16">
            <!-- 4.0 -->
            <g
               transform="translate(84.645 85.31475)scale(0.16 -0.16)"
               id="g245">
              <use
                 xlink:href="#DejaVuSans-34"
                 id="use247" />
              <use
                 x="63.623047"
                 xlink:href="#DejaVuSans-2e"
                 id="use249" />
              <use
                 x="95.410156"
                 xlink:href="#DejaVuSans-30"
                 id="use251" />
            </g>
          </g>
        </g>
        <g
           id="text_17">
          <!-- $y$ -->
          <defs
             id="defs254">
            <path
               d="M 24.8125 -5.078125  Q 18.5625 -15.578125 14.625 -18.1875  Q 10.6875 -20.796875 4.59375 -20.796875  L -2.484375 -20.796875  L -0.984375 -13.28125  L 4.203125 -13.28125  Q 7.953125 -13.28125 10.59375 -11.234375  Q 13.234375 -9.1875 16.5 -3.21875  L 19.28125 2  L 7.171875 54.6875  L 16.703125 54.6875  L 25.78125 12.796875  L 50.875 54.6875  L 60.296875 54.6875  z "
               id="DejaVuSans-Oblique-79" />
          </defs>
          <g
             transform="translate(77.285 262.956)rotate(-90)scale(0.16 -0.16)"
             id="g257">
            <use
               transform="translate(0 0.3125)"
               xlink:href="#DejaVuSans-Oblique-79"
               id="use259" />
          </g>
        </g>
      </g>
      <g
         id="line2d_16">
        <path
           clip-path="url(#p0e46492fd4)"
           d="M 402.287786 79.236  L 404.234263 105.890749  L 406.180739 129.065765  L 408.127216 149.400706  L 410.073693 167.387501  L 412.02017 183.410672  L 413.966647 197.77513  L 415.913124 210.725764  L 418.248896 224.677784  L 420.584668 237.156  L 422.92044 248.382221  L 425.256212 258.535873  L 427.591985 267.76366  L 429.927757 276.186698  L 432.652824 285.130108  L 435.377892 293.247609  L 438.102959 300.64856  L 440.828027 307.423826  L 443.553095 313.649534  L 446.667458 320.173674  L 449.78182 326.144335  L 452.896183 331.629082  L 456.010546 336.684915  L 459.514205 341.920045  L 463.017863 346.731849  L 466.521521 351.169679  L 470.02518 355.275501  L 473.918133 359.491642  L 477.811087 363.384212  L 482.093336 367.334969  L 486.375585 370.978166  L 491.047129 374.642273  L 495.718674 378.019562  L 500.779514 381.392095  L 505.840353 384.500991  L 511.290488 387.588222  L 517.129919 390.63069  L 523.358645 393.609559  L 529.587371 396.346244  L 536.205392 399.020277  L 543.212708 401.620396  L 550.998616 404.264694  L 559.173819 406.798794  L 567.738317 409.221354  L 577.081405 411.628366  L 586.81379 413.908408  L 597.324764 416.14526  L 608.61433 418.322289  L 621.071782 420.491412  L 634.307824 422.56654  L 648.711753 424.595588  L 664.283568 426.560781  L 681.023268 428.449309  L 699.320151 430.289578  L 719.56351 432.09698  L 741.753346 433.848095  L 765.889658 435.52629  L 791.193857 437.076  L 791.193857 437.076  "
           style="fill:none;stroke:#000000;stroke-linecap:square;stroke-width:1.5;"
           id="path262" />
      </g>
      <g
         id="line2d_17">
        <path
           clip-path="url(#p0e46492fd4)"
           d="M 91.162929 422.7624  L 133.005878 421.113143  L 170.975631 419.395168  L 204.127886 417.677192  L 234.301173 415.890498  L 260.760754 414.103803  L 284.065964 412.317108  L 305.420604 410.461695  L 324.292976 408.606281  L 341.617205 406.682148  L 356.973989 404.758016  L 371.09322 402.765164  L 383.642734 400.772312  L 394.832583 398.779461  L 405.165455 396.71789  L 414.397612 394.656319  L 422.929462 392.52603  L 430.565983 390.39574  L 437.627455 388.196731  L 443.957453 385.997722  L 449.813118 383.729994  L 455.068747 381.462267  L 459.931459 379.12582  L 464.421741 376.720654  L 468.451257 374.315488  L 472.172036 371.841603  L 475.60092 369.298999  L 478.754612 366.687677  L 481.649528 364.007635  L 484.3642 361.190155  L 486.837857 358.303956  L 489.136664 355.280319  L 491.259557 352.119244  L 493.207864 348.82073  L 495.018053 345.31606  L 496.681826 341.605233  L 498.194688 337.688249  L 499.576293 333.496388  L 500.835636 328.960933  L 501.973772 324.013163  L 502.974784 318.653079  L 503.847503 312.743243  L 504.582117 306.214936  L 505.174 298.930719  L 505.616455 290.684436  L 505.896874 281.201211  L 505.996071 270.068729  L 505.884235 256.668519  L 505.510699 239.832359  L 504.76389 216.880205  L 503.193809 176.610857  L 500.381606 103.974849  L 499.514304 79.236  L 499.514304 79.236  "
           style="fill:none;stroke:#000000;stroke-linecap:square;stroke-width:1.5;"
           id="path265" />
      </g>
      <g
         id="line2d_18">
        <path
           clip-path="url(#p0e46492fd4)"
           d="m 115.57503,433.91854 328.55571,-12.8054 37.96975,-1.71797 33.15225,-1.71798 30.17329,-1.78669 26.45958,-1.7867 23.30521,-1.78669 21.35464,-1.85541 18.87237,-1.85542 17.32423,-1.92413 15.35679,-1.92413 14.11923,-1.99286 12.54951,-1.99285 11.18985,-1.99285 10.33287,-2.06157 9.23216,-2.06157 8.53185,-2.13029 7.63652,-2.13029 7.06147,-2.19901 6.33,-2.19901 5.85567,-2.26773 5.25562,-2.26772 4.86272,-2.33645 4.49028,-2.40517 4.02951,-2.40516 3.72078,-2.47389 3.42889,-2.5426 3.15369,-2.61132 2.89492,-2.68005 2.71467,-2.81748 2.47365,-2.88619 2.29881,-3.02364 2.12289,-3.16108 1.94831,-3.29851 1.81019,-3.50467 1.66377,-3.71083 1.51286,-3.91698 1.38161,-4.19186 1.25934,-4.53546 1.13814,-4.94777 1.00101,-5.36008 0.87272,-5.90984 0.73461,-6.5283 0.59189,-7.28422 0.44245,-8.24628 0.28042,-9.48323 0.0992,-11.13248 -0.11184,-13.40021 -0.37353,-16.83616 -0.74681,-22.95216 -1.57008,-40.26934 -2.81221,-72.63601 -0.8673,-24.73885 0,0"
           style="fill:none;stroke:#000000;stroke-width:1.5;stroke-linecap:square;stroke-linejoin:round"
           id="path268"
           inkscape:connector-curvature="0"
           sodipodi:nodetypes="cccccccccccccccccccccccccccccccccccccccccccccccccccccc" />
      </g>
      <g
         id="patch_3">
        <path
           d="M 117.09 454.968  L 117.09 61.344  "
           style="fill:none;stroke:#000000;stroke-linecap:square;stroke-linejoin:miter;stroke-width:0.8;"
           id="path271" />
      </g>
      <g
         id="patch_4">
        <path
           d="M 843.048 454.968  L 843.048 61.344  "
           style="fill:none;stroke:#000000;stroke-linecap:square;stroke-linejoin:miter;stroke-width:0.8;"
           id="path274" />
      </g>
      <g
         id="patch_5">
        <path
           d="M 117.09 454.968  L 843.048 454.968  "
           style="fill:none;stroke:#000000;stroke-linecap:square;stroke-linejoin:miter;stroke-width:0.8;"
           id="path277" />
      </g>
      <g
         id="patch_6">
        <path
           d="M 117.09 61.344  L 843.048 61.344  "
           style="fill:none;stroke:#000000;stroke-linecap:square;stroke-linejoin:miter;stroke-width:0.8;"
           id="path280" />
      </g>
      <g
         id="patch_7">
        <path
           d="M 412.163281 268.319923  Q 419.215237 269.933391 425.177321 271.2975  "
           style="fill:none;stroke:#000000;stroke-linecap:round;"
           id="path283" />
        <path
           d="M 419.652242 266.750688  L 425.177321 271.2975  L 418.224824 272.989476  "
           style="fill:none;stroke:#000000;stroke-linecap:round;"
           id="path285" />
      </g>
      <g
         id="text_18">
        <!-- $f(x)$ -->
        <defs
           id="defs288">
          <path
             d="M 47.796875 75.984375  L 46.390625 68.5  L 37.796875 68.5  Q 32.90625 68.5 30.6875 66.578125  Q 28.46875 64.65625 27.390625 59.515625  L 26.421875 54.6875  L 41.21875 54.6875  L 39.890625 47.703125  L 25.09375 47.703125  L 15.828125 0  L 6.78125 0  L 16.109375 47.703125  L 7.515625 47.703125  L 8.796875 54.6875  L 17.390625 54.6875  L 18.109375 58.5  Q 19.96875 68.171875 24.625 72.078125  Q 29.296875 75.984375 39.3125 75.984375  z "
             id="DejaVuSans-Oblique-66" />
          <path
             d="M 31 75.875  Q 24.46875 64.65625 21.28125 53.65625  Q 18.109375 42.671875 18.109375 31.390625  Q 18.109375 20.125 21.3125 9.0625  Q 24.515625 -2 31 -13.1875  L 23.1875 -13.1875  Q 15.875 -1.703125 12.234375 9.375  Q 8.59375 20.453125 8.59375 31.390625  Q 8.59375 42.28125 12.203125 53.3125  Q 15.828125 64.359375 23.1875 75.875  z "
             id="DejaVuSans-28" />
          <path
             d="M 8.015625 75.875  L 15.828125 75.875  Q 23.140625 64.359375 26.78125 53.3125  Q 30.421875 42.28125 30.421875 31.390625  Q 30.421875 20.453125 26.78125 9.375  Q 23.140625 -1.703125 15.828125 -13.1875  L 8.015625 -13.1875  Q 14.5 -2 17.703125 9.0625  Q 20.90625 20.125 20.90625 31.390625  Q 20.90625 42.671875 17.703125 53.65625  Q 14.5 64.65625 8.015625 75.875  "
             id="DejaVuSans-29" />
        </defs>
        <g
           transform="translate(380.534857 268.66498)scale(0.16 -0.16)"
           id="g293">
          <use
             transform="translate(0 0.015625)"
             xlink:href="#DejaVuSans-Oblique-66"
             id="use295" />
          <use
             transform="translate(35.205078 0.015625)"
             xlink:href="#DejaVuSans-28"
             id="use297" />
          <use
             transform="translate(74.21875 0.015625)"
             xlink:href="#DejaVuSans-Oblique-78"
             id="use299" />
          <use
             transform="translate(133.398438 0.015625)"
             xlink:href="#DejaVuSans-29"
             id="use301" />
        </g>
      </g>
      <g
         id="patch_8">
        <path
           d="M 485.803785 147.337934  Q 492.848476 148.859838 498.800343 150.145654  "
           style="fill:none;stroke:#000000;stroke-linecap:round;"
           id="path304" />
        <path
           d="M 493.220385 145.666361  L 498.800343 150.145654  L 491.868934 151.922045  "
           style="fill:none;stroke:#000000;stroke-linecap:round;"
           id="path306" />
      </g>
      <g
         id="text_19">
        <!-- $a(y)$ -->
        <defs
           id="defs309">
          <path
             d="M 53.71875 31.203125  L 47.609375 0  L 38.625 0  L 40.28125 8.296875  Q 36.328125 3.421875 31.265625 1  Q 26.21875 -1.421875 20.015625 -1.421875  Q 13.03125 -1.421875 8.5625 2.84375  Q 4.109375 7.125 4.109375 13.8125  Q 4.109375 23.390625 11.75 28.953125  Q 19.390625 34.515625 32.8125 34.515625  L 45.3125 34.515625  L 45.796875 36.921875  Q 45.90625 37.3125 45.953125 37.765625  Q 46 38.234375 46 39.203125  Q 46 43.5625 42.453125 45.96875  Q 38.921875 48.390625 32.515625 48.390625  Q 28.125 48.390625 23.5 47.265625  Q 18.890625 46.140625 14.015625 43.890625  L 15.578125 52.203125  Q 20.65625 54.109375 25.515625 55.046875  Q 30.375 56 34.90625 56  Q 44.578125 56 49.625 51.796875  Q 54.6875 47.609375 54.6875 39.59375  Q 54.6875 37.984375 54.4375 35.8125  Q 54.203125 33.640625 53.71875 31.203125  M 44 27.484375  L 35.015625 27.484375  Q 23.96875 27.484375 18.671875 24.53125  Q 13.375 21.578125 13.375 15.375  Q 13.375 11.078125 16.078125 8.640625  Q 18.796875 6.203125 23.578125 6.203125  Q 30.90625 6.203125 36.375 11.453125  Q 41.84375 16.703125 43.609375 25.484375  z "
             id="DejaVuSans-Oblique-61" />
        </defs>
        <g
           transform="translate(450.00774 147.444)scale(0.16 -0.16)"
           id="g312">
          <use
             transform="translate(0 0.125)"
             xlink:href="#DejaVuSans-Oblique-61"
             id="use314" />
          <use
             transform="translate(61.279297 0.125)"
             xlink:href="#DejaVuSans-28"
             id="use316" />
          <use
             transform="translate(100.292969 0.125)"
             xlink:href="#DejaVuSans-Oblique-79"
             id="use318" />
          <use
             transform="translate(159.472656 0.125)"
             xlink:href="#DejaVuSans-29"
             id="use320" />
        </g>
      </g>
      <g
         id="patch_9">
        <path
           d="M 795.890759 139.719212  Q 802.935801 141.234443 808.887804 142.514586  "
           style="fill:none;stroke:#000000;stroke-linecap:round;"
           id="path323" />
        <path
           d="M 803.303747 138.040404  L 808.887804 142.514586  L 801.958024 144.297322  "
           style="fill:none;stroke:#000000;stroke-linecap:round;"
           id="path325" />
      </g>
      <g
         id="text_20">
        <!-- $b(y)$ -->
        <defs
           id="defs328">
          <path
             d="M 49.515625 33.40625  Q 49.515625 40.484375 46.265625 44.484375  Q 43.015625 48.484375 37.3125 48.484375  Q 33.15625 48.484375 29.515625 46.453125  Q 25.875 44.4375 23.1875 40.578125  Q 20.359375 36.53125 18.71875 31.171875  Q 17.09375 25.828125 17.09375 20.515625  Q 17.09375 13.765625 20.28125 9.9375  Q 23.484375 6.109375 29.109375 6.109375  Q 33.34375 6.109375 36.953125 8.078125  Q 40.578125 10.0625 43.3125 13.921875  Q 46.09375 17.921875 47.796875 23.234375  Q 49.515625 28.5625 49.515625 33.40625  M 21.578125 46.390625  Q 24.90625 50.875 29.90625 53.4375  Q 34.90625 56 40.375 56  Q 48.78125 56 53.734375 50.328125  Q 58.6875 44.671875 58.6875 35.015625  Q 58.6875 27.09375 55.78125 19.671875  Q 52.875 12.25 47.515625 6.5  Q 44 2.6875 39.40625 0.625  Q 34.8125 -1.421875 29.78125 -1.421875  Q 24.46875 -1.421875 20.5625 1.015625  Q 16.65625 3.46875 14.203125 8.296875  L 12.59375 0  L 3.609375 0  L 18.40625 75.984375  L 27.390625 75.984375  z "
             id="DejaVuSans-Oblique-62" />
        </defs>
        <g
           transform="translate(759.775514 139.81008)scale(0.16 -0.16)"
           id="g331">
          <use
             transform="translate(0 0.015625)"
             xlink:href="#DejaVuSans-Oblique-62"
             id="use333" />
          <use
             transform="translate(63.476562 0.015625)"
             xlink:href="#DejaVuSans-28"
             id="use335" />
          <use
             transform="translate(102.490234 0.015625)"
             xlink:href="#DejaVuSans-Oblique-79"
             id="use337" />
          <use
             transform="translate(161.669922 0.015625)"
             xlink:href="#DejaVuSans-29"
             id="use339" />
        </g>
      </g>
      <g
         id="patch_10">
        <path
           d="M 463.99016 360.904065  Q 471.069796 362.931212 477.074591 364.650596  "
           style="fill:none;stroke:#000000;stroke-linecap:round;"
           id="path342" />
        <path
           d="M 471.802721 359.812478  L 477.074591 364.650596  L 470.040975 365.965221  "
           style="fill:none;stroke:#000000;stroke-linecap:round;"
           id="path344" />
      </g>
      <g
         id="text_21">
        <!-- $a'$ -->
        <defs
           id="defs347">
          <path
             d="M 3.515625 5.421875  Q 2.875 5.609375 2.875 6.390625  L 15.09375 51.8125  Q 15.671875 53.65625 17.078125 54.78125  Q 18.5 55.90625 20.3125 55.90625  Q 22.65625 55.90625 24.4375 54.359375  Q 26.21875 52.828125 26.21875 50.484375  Q 26.21875 49.46875 25.6875 48.1875  L 7.625 4.984375  Q 7.28125 4.296875 6.6875 4.296875  Q 6.15625 4.296875 5 4.78125  Q 3.859375 5.28125 3.515625 5.421875  "
             id="Cmsy10-30" />
        </defs>
        <g
           transform="translate(445.989 362.1805)scale(0.16 -0.16)"
           id="g350">
          <use
             transform="translate(0 0.584375)"
             xlink:href="#DejaVuSans-Oblique-61"
             id="use352" />
          <use
             transform="translate(65.929193 38.865625)scale(0.7)"
             xlink:href="#Cmsy10-30"
             id="use354" />
        </g>
      </g>
      <g
         id="patch_11">
        <path
           d="M 595.191594 421.998183  Q 590.277255 418.218807 586.249174 415.121007  "
           style="fill:none;stroke:#000000;stroke-linecap:round;"
           id="path357" />
        <path
           d="M 589.371621 421.5592  L 586.249174 415.121007  L 593.273196 416.485965  "
           style="fill:none;stroke:#000000;stroke-linecap:round;"
           id="path359" />
      </g>
      <g
         id="text_22">
        <!-- $b'$ -->
        <g
           transform="translate(598.777286 434.8925)scale(0.16 -0.16)"
           id="g362">
          <use
             transform="translate(0 0.584375)"
             xlink:href="#DejaVuSans-Oblique-62"
             id="use364" />
          <use
             transform="translate(70.924271 38.865625)scale(0.7)"
             xlink:href="#Cmsy10-30"
             id="use366" />
        </g>
      </g>
      <g
         id="text_23">
        <!-- $f(x) = 1/x$ -->
        <defs
           id="defs369">
          <path
             d="M 10.59375 45.40625  L 73.1875 45.40625  L 73.1875 37.203125  L 10.59375 37.203125  z M 10.59375 25.484375  L 73.1875 25.484375  L 73.1875 17.1875  L 10.59375 17.1875  z "
             id="DejaVuSans-3d" />
          <path
             d="M 25.390625 72.90625  L 33.6875 72.90625  L 8.296875 -9.28125  L 0 -9.28125  z "
             id="DejaVuSans-2f" />
        </defs>
        <g
           transform="translate(436.677 55.344)scale(0.192 -0.192)"
           id="g373">
          <use
             transform="translate(0 0.015625)"
             xlink:href="#DejaVuSans-Oblique-66"
             id="use375" />
          <use
             transform="translate(35.205078 0.015625)"
             xlink:href="#DejaVuSans-28"
             id="use377" />
          <use
             transform="translate(74.21875 0.015625)"
             xlink:href="#DejaVuSans-Oblique-78"
             id="use379" />
          <use
             transform="translate(133.398438 0.015625)"
             xlink:href="#DejaVuSans-29"
             id="use381" />
          <use
             transform="translate(191.894531 0.015625)"
             xlink:href="#DejaVuSans-3d"
             id="use383" />
          <use
             transform="translate(295.166016 0.015625)"
             xlink:href="#DejaVuSans-31"
             id="use385" />
          <use
             transform="translate(358.789062 0.015625)"
             xlink:href="#DejaVuSans-2f"
             id="use387" />
          <use
             transform="translate(392.480469 0.015625)"
             xlink:href="#DejaVuSans-Oblique-78"
             id="use389" />
        </g>
      </g>
    </g>
  </g>
  <defs
     id="defs391">
    <clipPath
       id="p0e46492fd4">
      <rect
         height="393.624"
         width="725.958"
         x="117.09"
         y="61.344"
         id="rect394" />
    </clipPath>
  </defs>
  <path
     style="opacity:0.2;fill:#000000;fill-opacity:1;stroke:none;stroke-width:1.875;stroke-linecap:butt;stroke-linejoin:miter;stroke-miterlimit:4;stroke-dasharray:5.625, 1.87500000000000000;stroke-dashoffset:17.0625;stroke-opacity:1"
     d="m 146.84267,534.79946 0,-5.46707 8.71573,-0.7724 c 4.79366,-0.42482 18.44249,-1.13571 30.33075,-1.57975 11.88826,-0.44403 43.89244,-2.0395 71.12039,-3.54548 199.85719,-11.05409 294.08047,-27.5278 335.78322,-58.70733 l 7.37439,-5.51355 6.57078,5.43322 c 20.62777,17.05663 47.33775,30.7473 81.09433,41.56632 13.46794,4.31649 25.67385,8.28633 27.12421,8.82187 4.00274,1.47798 -85.37181,6.71695 -180.438,10.57695 -118.72715,4.82072 -374.17637,14.6543 -380.67805,14.6543 l -6.99775,0 0,-5.46708 z"
     id="path4526"
     inkscape:connector-curvature="0"
     transform="scale(0.8,0.8)" />
  <path
     inkscape:connector-curvature="0"
     transform="matrix(1.2576766,0,0,1.022632,-30.215244,-5.5325228)"
     clip-path="url(#p0e46492fd4-3)"
     d="m 91.162929,422.7624 41.842951,-1.64926 37.96975,-1.71797 33.15226,-1.71798 30.17328,-1.78669 26.45958,-1.7867 23.30521,-1.78669 21.35464,-1.85541 18.87238,-1.85542 17.32423,-1.92413 15.35678,-1.92413 14.11923,-1.99286 12.54951,-1.99285 11.18985,-1.99285 10.33287,-2.06157 9.23216,-2.06157 8.53185,-2.13029 7.63652,-2.13029 7.06147,-2.19901 6.33,-2.19901 5.85567,-2.26773 5.25563,-2.26772 4.86271,-2.33645 4.49028,-2.40517 4.02952,-2.40516 3.72078,-2.47389 3.42888,-2.5426 3.15369,-2.61132 2.89492,-2.68005 2.71467,-2.81748 2.47366,-2.88619 2.2988,-3.02364 2.1229,-3.16108 1.9483,-3.29851 1.81019,-3.50467 1.66378,-3.71083 1.51286,-3.91698 1.3816,-4.19186 1.25935,-4.53546 1.13813,-4.94777 1.00101,-5.36008 0.87272,-5.90984 0.73462,-6.5283 0.59188,-7.28422 0.44245,-8.24628 0.28042,-9.48323 0.0992,-11.13248 -0.11184,-13.40021 -0.37353,-16.83616 -0.74681,-22.95216 -1.57008,-40.26934 -2.8122,-72.63601 -0.86731,-24.73885 0,0"
     style="fill:none;stroke:#000000;stroke-width:1.41083363;stroke-linecap:square;stroke-linejoin:round;opacity:0.5;stroke-miterlimit:4;stroke-dasharray:none"
     id="path265-7" />
  <path
     inkscape:connector-curvature="0"
     transform="matrix(1.5239424,0,0,1.0387978,-61.405661,-7.9188266)"
     clip-path="url(#p0e46492fd4-3-5)"
     d="m 91.162929,422.7624 41.842951,-1.64926 37.96975,-1.71797 33.15226,-1.71798 30.17328,-1.78669 26.45958,-1.7867 23.30521,-1.78669 21.35464,-1.85541 18.87238,-1.85542 17.32423,-1.92413 15.35678,-1.92413 14.11923,-1.99286 12.54951,-1.99285 11.18985,-1.99285 10.33287,-2.06157 9.23216,-2.06157 8.53185,-2.13029 7.63652,-2.13029 7.06147,-2.19901 6.33,-2.19901 5.85567,-2.26773 5.25563,-2.26772 4.86271,-2.33645 4.49028,-2.40517 4.02952,-2.40516 3.72078,-2.47389 3.42888,-2.5426 3.15369,-2.61132 2.89492,-2.68005 2.71467,-2.81748 2.47366,-2.88619 2.2988,-3.02364 2.1229,-3.16108 1.9483,-3.29851 1.81019,-3.50467 1.66378,-3.71083 1.51286,-3.91698 1.3816,-4.19186 1.25935,-4.53546 1.13813,-4.94777 1.00101,-5.36008 0.87272,-5.90984 0.73462,-6.5283 0.59188,-7.28422 0.44245,-8.24628 0.28042,-9.48323 0.0992,-11.13248 -0.11184,-13.40021 -0.37353,-16.83616 -0.74681,-22.95216 -1.57008,-40.26934 -2.8122,-72.63601 -0.86731,-24.73885 0,0"
     style="fill:none;stroke:#000000;stroke-width:1.18184679;stroke-linecap:square;stroke-linejoin:round;opacity:0.5;stroke-miterlimit:4;stroke-dasharray:none"
     id="path265-7-5" />
  <path
     style="fill:none;fill-rule:evenodd;stroke:#000000;stroke-width:0.50972635;stroke-linecap:butt;stroke-linejoin:miter;stroke-miterlimit:4;stroke-dasharray:none;stroke-opacity:1"
     d="m 518.76043,391.69699 c -93.91458,0 -93.91458,0 -93.91458,0"
     id="path4572"
     inkscape:connector-curvature="0" />
  <path
     style="fill:none;fill-rule:evenodd;stroke:#000000;stroke-width:0.66296184;stroke-linecap:butt;stroke-linejoin:miter;stroke-miterlimit:4;stroke-dasharray:none;stroke-opacity:1"
     d="m 552.49226,405.00366 c -105.7919,0 -105.7919,0 -105.7919,0"
     id="path4572-6"
     inkscape:connector-curvature="0" />
  <path
     style="fill:#ffffff;fill-rule:evenodd;stroke:#000000;stroke-width:0.65924382;stroke-linecap:butt;stroke-linejoin:miter;stroke-miterlimit:4;stroke-dasharray:none;stroke-opacity:1"
     d="m 585.08729,412.8851 c -104.60862,0 -104.60862,0 -104.60862,0"
     id="path4572-6-2"
     inkscape:connector-curvature="0" />
  <path
     style="opacity:0.5;fill:#ffffff;fill-opacity:1;stroke:none;stroke-width:0.81625003;stroke-linecap:butt;stroke-linejoin:miter;stroke-miterlimit:4;stroke-dasharray:none;stroke-dashoffset:17.0625;stroke-opacity:1"
     d="m 548.96175,486.26363 c 20.2813,-6.93084 34.31501,-14.02781 47.32978,-23.93512 l 3.86896,-2.94518 4.35259,3.58813 c 11.4516,9.44035 22.04691,16.54804 34.4278,23.09531 l 5.42339,2.86801 -51.52229,-0.0298 -51.52229,-0.0298 7.64206,-2.61157 z"
     id="path4604"
     inkscape:connector-curvature="0"
     transform="scale(0.8,0.8)" />
  <path
     style="opacity:1;fill:#ffffff;fill-opacity:1;stroke:none;stroke-width:0.81625003;stroke-linecap:butt;stroke-linejoin:miter;stroke-miterlimit:4;stroke-dasharray:none;stroke-dashoffset:17.0625;stroke-opacity:1"
     d="m 542.05924,488.40539 c 0,-0.30018 0.3328,-0.41808 0.73955,-0.26199 0.40676,0.15609 0.73956,0.0452 0.73956,-0.24652 0,-0.29167 0.30576,-0.41298 0.67947,-0.26957 0.37372,0.14341 0.92838,0.0118 1.23259,-0.29238 0.30422,-0.30421 0.55312,-0.37064 0.55312,-0.14762 0,0.22302 0.27733,0.18582 0.6163,-0.0827 0.33896,-0.26849 1.83656,-0.88573 3.32799,-1.37163 1.49144,-0.4859 3.48823,-1.21991 4.43733,-1.63112 0.94909,-0.41122 2.15973,-0.82516 2.69029,-0.91986 0.53057,-0.0947 1.08524,-0.33299 1.2326,-0.52952 0.14735,-0.19653 0.68877,-0.43 1.20314,-0.51882 0.51438,-0.0888 2.17838,-0.73365 3.69778,-1.43293 1.5194,-0.69928 2.92894,-1.23674 3.13232,-1.19435 0.20338,0.0424 0.36978,-0.14479 0.36978,-0.41596 0,-0.27117 0.1664,-0.45664 0.36977,-0.41216 0.76163,0.16658 3.08148,-0.6988 3.08148,-1.14949 0,-0.25778 0.22187,-0.33157 0.49304,-0.16398 0.27117,0.1676 0.49303,0.0567 0.49303,-0.24651 0,-0.30318 0.22187,-0.41411 0.49304,-0.24652 0.27117,0.16759 0.49303,0.0567 0.49303,-0.24652 0,-0.30318 0.22187,-0.41411 0.49304,-0.24652 0.27117,0.16759 0.49304,0.0697 0.49304,-0.21742 0,-0.28717 0.1664,-0.46938 0.36977,-0.4049 0.54271,0.17205 3.57452,-1.16296 3.57452,-1.57398 0,-0.19308 0.27903,-0.35105 0.62006,-0.35105 0.90385,0 8.74763,-4.60699 8.74763,-5.13786 0,-0.24744 0.1664,-0.3958 0.36978,-0.32969 0.54497,0.17715 4.06754,-2.09666 4.06754,-2.62559 0,-0.24905 0.33977,-0.45283 0.75503,-0.45283 0.41527,0 0.88225,-0.33152 1.03774,-0.73672 0.15549,-0.4052 0.43974,-0.63967 0.63168,-0.52104 0.19194,0.11862 1.27802,-0.63356 2.41352,-1.67151 1.1355,-1.03794 2.06454,-1.79676 2.06454,-1.68625 0,0.11051 0.55549,-0.16304 1.23442,-0.60789 1.19676,-0.78415 1.3008,-0.75442 3.41097,0.97471 1.1971,0.98094 2.26718,1.78352 2.37795,1.78352 0.11077,0 1.28174,0.99187 2.60216,2.20414 1.32042,1.21228 2.50375,2.10116 2.62963,1.97529 0.12587,-0.12588 0.53867,0.21346 0.91733,0.75407 0.37866,0.54062 0.88407,0.98294 1.12313,0.98294 0.23905,0 1.15687,0.65965 2.03958,1.46588 0.88272,0.80624 1.68573,1.38509 1.78448,1.28634 0.0987,-0.0987 0.87039,0.45146 1.71476,1.22267 0.84437,0.77122 1.6958,1.30297 1.89206,1.18167 0.19626,-0.12129 0.48946,0.12505 0.65154,0.54744 0.16208,0.42238 0.49488,0.64425 0.73955,0.49303 0.24468,-0.15121 0.57748,0.0707 0.73956,0.49304 0.16208,0.42238 0.49488,0.64425 0.73955,0.49304 0.24468,-0.15122 0.57748,0.0707 0.73956,0.49303 0.16208,0.42239 0.51813,0.62989 0.79122,0.46111 0.27308,-0.16878 0.49651,-0.0719 0.49651,0.21527 0,0.28717 0.21934,0.52213 0.4874,0.52213 0.26807,0 0.94087,0.38827 1.4951,0.86282 0.55423,0.47454 1.06117,0.75188 1.12654,0.61629 0.0654,-0.13558 0.66389,0.26127 1.33005,0.88189 0.66617,0.62063 1.71483,1.25482 2.33035,1.4093 0.61553,0.15449 1.11915,0.44501 1.11915,0.6456 0,0.20059 0.94293,0.78054 2.0954,1.28879 1.15247,0.50825 2.20634,1.07458 2.34192,1.25853 0.13559,0.18394 1.96598,1.15031 4.06755,2.1475 2.10157,0.99718 3.82103,1.90667 3.82103,2.02109 0,0.11441 -23.0741,0.20803 -51.27577,0.20803 -37.15898,0 -51.27578,-0.15026 -51.27578,-0.54579 z"
     id="path4606"
     inkscape:connector-curvature="0"
     transform="scale(0.8,0.8)" />
  <path
     style="opacity:1;fill:#ffffff;fill-opacity:1;stroke:none;stroke-width:0.81625003;stroke-linecap:butt;stroke-linejoin:miter;stroke-miterlimit:4;stroke-dasharray:none;stroke-dashoffset:17.0625;stroke-opacity:1"
     d="m 575.33919,505.1423 c 27.77647,-4.25397 52.02912,-8.8656 68.25516,-12.97869 l 4.87943,-1.23687 3.07976,1.4565 c 1.69388,0.80108 3.26523,1.34188 3.49191,1.20179 0.22668,-0.1401 0.41214,-0.0467 0.41214,0.2076 0,0.44732 1.93882,1.38798 3.45126,1.67445 0.40675,0.077 0.85048,0.25714 0.98607,0.40021 0.33872,0.35742 4.02132,1.90332 4.93036,2.0697 0.40676,0.0745 0.86012,0.29616 1.00748,0.49269 0.14735,0.19652 0.70202,0.42924 1.23259,0.51714 0.53056,0.0879 1.4471,0.42514 2.03674,0.74941 0.58964,0.32428 1.47711,0.65708 1.97215,0.73956 0.49504,0.0825 1.3438,0.38724 1.88614,0.67725 0.54234,0.29002 1.87354,0.79522 2.95822,1.12268 1.08468,0.32745 2.30494,0.72576 2.7117,0.88512 0.40675,0.15936 0.90595,0.33664 1.10933,0.39396 0.20338,0.0573 0.48071,0.15967 0.6163,0.22747 0.13558,0.0678 0.46838,0.17872 0.73955,0.24651 0.27117,0.0678 0.60397,0.17873 0.73955,0.24652 0.13559,0.0678 0.46839,0.17873 0.73956,0.24652 0.27117,0.0678 0.60397,0.17873 0.73955,0.24652 0.13559,0.0678 0.4499,0.15099 0.69847,0.18489 0.24857,0.0339 0.61835,0.22803 0.82173,0.4314 0.20337,0.20338 -25.01543,0.34299 -56.04179,0.31025 -36.33083,-0.0383 -55.35854,-0.2208 -53.45336,-0.51258 z"
     id="path4608"
     inkscape:connector-curvature="0"
     transform="scale(0.8,0.8)" />
  <path
     style="opacity:1;fill:#ffffff;fill-opacity:1;stroke:none;stroke-width:0.81625003;stroke-linecap:butt;stroke-linejoin:miter;stroke-miterlimit:4;stroke-dasharray:none;stroke-dashoffset:17.0625;stroke-opacity:1"
     d="m 618.72639,515.23857 c 0.81351,-0.10385 8.91163,-0.96396 17.99582,-1.91135 15.62351,-1.62937 44.9142,-5.13665 50.75591,-6.07753 2.2951,-0.36965 3.13631,-0.2625 5.79457,0.73806 1.71034,0.64377 3.16455,1.15657 3.23157,1.13955 0.067,-0.017 0.67653,0.17833 1.35445,0.43412 0.67793,0.25579 4.60189,1.53577 8.71991,2.8444 4.11802,1.30862 7.37745,2.55707 7.24319,2.77432 -0.13427,0.21725 -21.91847,0.36176 -48.40933,0.32113 -26.49086,-0.0406 -47.4996,-0.15885 -46.68609,-0.2627 z"
     id="path4610"
     inkscape:connector-curvature="0"
     transform="scale(0.8,0.8)" />
</svg>
