<?xml version="1.0" encoding="UTF-8" standalone="no"?>
<!-- Created with Inkscape (http://www.inkscape.org/) -->

<svg
   xmlns:dc="http://purl.org/dc/elements/1.1/"
   xmlns:cc="http://creativecommons.org/ns#"
   xmlns:rdf="http://www.w3.org/1999/02/22-rdf-syntax-ns#"
   xmlns:svg="http://www.w3.org/2000/svg"
   xmlns="http://www.w3.org/2000/svg"
   xmlns:sodipodi="http://sodipodi.sourceforge.net/DTD/sodipodi-0.dtd"
   xmlns:inkscape="http://www.inkscape.org/namespaces/inkscape"
   width="175.79263mm"
   height="173.42577mm"
   viewBox="0 0 622.88728 614.50074"
   id="svg2"
   version="1.1"
   inkscape:version="0.91 r13725"
   sodipodi:docname="cav_principle.svg">
  <defs
     id="defs4">
    <inkscape:path-effect
       effect="spiro"
       id="path-effect4296"
       is_visible="true" />
    <inkscape:path-effect
       effect="spiro"
       id="path-effect4292"
       is_visible="true" />
    <inkscape:perspective
       sodipodi:type="inkscape:persp3d"
       inkscape:vp_x="0 : 526.1811 : 1"
       inkscape:vp_y="0 : 999.99999 : 0"
       inkscape:vp_z="744.0945 : 526.1811 : 1"
       inkscape:persp3d-origin="372.04724 : 350.7874 : 1"
       id="perspective4136" />
    <inkscape:path-effect
       effect="spiro"
       id="path-effect4296-9"
       is_visible="true" />
    <inkscape:path-effect
       effect="spiro"
       id="path-effect4296-9-2"
       is_visible="true" />
    <inkscape:path-effect
       effect="spiro"
       id="path-effect4296-0"
       is_visible="true" />
  </defs>
  <sodipodi:namedview
     id="base"
     pagecolor="#ffffff"
     bordercolor="#666666"
     borderopacity="1.0"
     inkscape:pageopacity="0.0"
     inkscape:pageshadow="2"
     inkscape:zoom="0.57679761"
     inkscape:cx="95.329595"
     inkscape:cy="284.27871"
     inkscape:document-units="px"
     inkscape:current-layer="layer1"
     showgrid="false"
     inkscape:window-width="1301"
     inkscape:window-height="744"
     inkscape:window-x="65"
     inkscape:window-y="24"
     inkscape:window-maximized="1"
     fit-margin-top="0"
     fit-margin-left="0"
     fit-margin-right="0"
     fit-margin-bottom="0" />
  <metadata
     id="metadata7">
    <rdf:RDF>
      <cc:Work
         rdf:about="">
        <dc:format>image/svg+xml</dc:format>
        <dc:type
           rdf:resource="http://purl.org/dc/dcmitype/StillImage" />
        <dc:title></dc:title>
      </cc:Work>
    </rdf:RDF>
  </metadata>
  <g
     inkscape:label="Layer 1"
     inkscape:groupmode="layer"
     id="layer1"
     transform="translate(-25.329649,-195.95907)">
    <rect
       style="opacity:0.2;fill:#00ff00;fill-opacity:1;fill-rule:evenodd;stroke:#000000;stroke-width:3.9936831;stroke-linejoin:miter;stroke-miterlimit:4;stroke-dasharray:none;stroke-dashoffset:0;stroke-opacity:1"
       id="rect4152-367-5-3"
       width="452.14191"
       height="256.55469"
       x="-480.52292"
       y="463.37018"
       ry="0"
       transform="matrix(0.82691956,-0.56232023,0.91972085,0.392573,0,0)" />
    <rect
       style="opacity:0.5;fill:#0000ff;fill-opacity:1;fill-rule:evenodd;stroke:#000000;stroke-width:0.74919307;stroke-linejoin:miter;stroke-miterlimit:4;stroke-dasharray:none;stroke-dashoffset:0;stroke-opacity:1"
       id="rect4152"
       width="85.253029"
       height="47.883415"
       x="-587.5047"
       y="714.18915"
       ry="0"
       transform="matrix(0.81046817,-0.58578268,0.91066497,0.41314563,0,0)" />
    <rect
       style="opacity:0.5;fill:#0000ff;fill-opacity:1;fill-rule:evenodd;stroke:#000000;stroke-width:0.74919307;stroke-linejoin:miter;stroke-miterlimit:4;stroke-dasharray:none;stroke-dashoffset:0;stroke-opacity:1"
       id="rect4152-3"
       width="85.253029"
       height="47.883415"
       x="-301.0361"
       y="457.33572"
       ry="0"
       transform="matrix(0.81046817,-0.58578268,0.91066497,0.41314563,0,0)" />
    <path
       style="fill:none;fill-rule:evenodd;stroke:#000000;stroke-width:2;stroke-linecap:butt;stroke-linejoin:miter;stroke-miterlimit:4;stroke-dasharray:none;stroke-opacity:1"
       d="m 216.7138,384.88371 c 0,273.92624 0,275.65995 0,275.65995 l 0,0"
       id="path4169"
       inkscape:connector-curvature="0" />
    <path
       style="fill:none;fill-rule:evenodd;stroke:#000000;stroke-width:2;stroke-linecap:butt;stroke-linejoin:miter;stroke-miterlimit:4;stroke-dasharray:none;stroke-opacity:1"
       d="m 286.06221,335.22296 c 0,273.92624 0,275.65995 0,275.65995 l 0,0"
       id="path4169-6"
       inkscape:connector-curvature="0" />
    <path
       style="fill:none;fill-rule:evenodd;stroke:#000000;stroke-width:2;stroke-linecap:butt;stroke-linejoin:miter;stroke-miterlimit:4;stroke-dasharray:4, 2;stroke-dashoffset:0;stroke-opacity:1"
       d="m 242.71946,316.15215 c 0,273.92624 0,275.65995 0,275.65995 l 0,0"
       id="path4169-7"
       inkscape:connector-curvature="0" />
    <path
       style="fill:none;fill-rule:evenodd;stroke:#000000;stroke-width:2;stroke-linecap:butt;stroke-linejoin:miter;stroke-miterlimit:4;stroke-dasharray:none;stroke-opacity:1"
       d="m 173.37104,364.69603 c 0,273.92624 0,275.65995 0,275.65995 l 0,0"
       id="path4169-5"
       inkscape:connector-curvature="0" />
    <rect
       style="opacity:0.5;fill:#0000ff;fill-opacity:1;fill-rule:evenodd;stroke:#000000;stroke-width:0.74919307;stroke-linejoin:miter;stroke-miterlimit:4;stroke-dasharray:none;stroke-dashoffset:0;stroke-opacity:1"
       id="rect4152-35"
       width="85.253029"
       height="47.883415"
       x="-477.78995"
       y="869.74927"
       ry="0"
       transform="matrix(0.81046817,-0.58578268,0.91066497,0.41314563,0,0)" />
    <rect
       style="opacity:0.5;fill:#0000ff;fill-opacity:1;fill-rule:evenodd;stroke:#000000;stroke-width:0.74919307;stroke-linejoin:miter;stroke-miterlimit:4;stroke-dasharray:none;stroke-dashoffset:0;stroke-opacity:1"
       id="rect4152-3-6"
       width="85.253029"
       height="47.883415"
       x="-194.621"
       y="608.21735"
       ry="0"
       transform="matrix(0.81046817,-0.58578268,0.91066497,0.41314563,0,0)" />
    <path
       style="fill:none;fill-rule:evenodd;stroke:#000000;stroke-width:2;stroke-linecap:butt;stroke-linejoin:miter;stroke-miterlimit:4;stroke-dasharray:none;stroke-opacity:1"
       d="m 449.03099,658.80995 c 22.6504,-32.66813 36.54971,-71.3445 39.87534,-110.95747 2.01452,-23.99577 0.1192,-48.66269 -8.66855,-71.08212 -8.38138,-21.38269 -23.00749,-40.27475 -41.60905,-53.74503 -4.33754,-3.47288 -7.44758,-8.44894 -8.66855,-13.86968 -1.09045,-4.84127 -0.67877,-10.00994 1.16428,-14.61757 1.84304,-4.60762 5.10953,-8.63437 9.23798,-11.38808 l 1.73371,0"
       id="path4294"
       inkscape:path-effect="#path-effect4296"
       inkscape:original-d="m 449.03099,658.80995 c 0,0 35.48958,-71.90126 39.87534,-110.95747 2.66366,-23.72049 -7.71116,-46.06314 -8.66855,-71.08212 -0.70748,-18.48841 -41.60905,-53.74503 -41.60905,-53.74503 0,0 1.60154,5.44631 -8.66855,-13.86968 -4.383,-8.24355 10.40226,-26.00565 10.40226,-26.00565 l 1.73371,0"
       inkscape:connector-curvature="0"
       sodipodi:nodetypes="csscscc" />
    <path
       style="fill:none;fill-rule:evenodd;stroke:#000000;stroke-width:2;stroke-linecap:butt;stroke-linejoin:miter;stroke-miterlimit:4;stroke-dasharray:none;stroke-opacity:1"
       d="m 516.57699,609.50714 c 22.65406,-32.40431 36.56271,-70.86175 39.87717,-110.26048 2.00629,-23.84857 0.10143,-48.3677 -8.66895,-70.63561 -8.38461,-21.28844 -23.01909,-40.07171 -41.61096,-53.40743 -4.33542,-3.43735 -7.44813,-8.38619 -8.66894,-13.78256 -1.08978,-4.81719 -0.67665,-9.96326 1.16767,-14.5449 1.84432,-4.58164 5.11174,-8.57872 9.23506,-11.29739 l 1.73379,0"
       id="path4294-1"
       inkscape:path-effect="#path-effect4296-9"
       inkscape:original-d="m 516.57699,609.50714 c 0,0 35.49121,-71.44961 39.87717,-110.26048 2.66378,-23.57149 -7.71152,-45.77379 -8.66895,-70.63561 -0.70751,-18.37228 -41.61096,-53.40743 -41.61096,-53.40743 0,0 1.60162,5.4121 -8.66894,-13.78256 -4.3832,-8.19176 10.40273,-25.84229 10.40273,-25.84229 l 1.73379,0"
       inkscape:connector-curvature="0"
       sodipodi:nodetypes="csscscc" />
    <path
       style="fill:none;fill-rule:evenodd;stroke:#000000;stroke-width:2;stroke-linecap:butt;stroke-linejoin:miter;stroke-miterlimit:4;stroke-dasharray:none;stroke-opacity:1"
       d="m 405.62187,638.11291 c 22.65406,-32.40431 36.56271,-70.86175 39.87717,-110.26048 2.00629,-23.84857 0.10143,-48.3677 -8.66895,-70.63561 -8.38461,-21.28844 -23.01909,-40.07171 -41.61096,-53.40743 -4.33542,-3.43735 -7.44813,-8.38619 -8.66894,-13.78256 -1.08978,-4.81719 -0.67665,-9.96326 1.16767,-14.5449 1.84432,-4.58164 5.11174,-8.57872 9.23506,-11.29739 l 1.73379,0"
       id="path4294-1-7"
       inkscape:path-effect="#path-effect4296-9-2"
       inkscape:original-d="m 405.62187,638.11291 c 0,0 35.49121,-71.44961 39.87717,-110.26048 2.66378,-23.57149 -7.71152,-45.77379 -8.66895,-70.63561 -0.70751,-18.37228 -41.61096,-53.40743 -41.61096,-53.40743 0,0 1.60162,5.4121 -8.66894,-13.78256 -4.3832,-8.19176 10.40273,-25.84229 10.40273,-25.84229 l 1.73379,0"
       inkscape:connector-curvature="0"
       sodipodi:nodetypes="csscscc" />
    <path
       style="fill:none;fill-rule:evenodd;stroke:#000000;stroke-width:2;stroke-linecap:butt;stroke-linejoin:miter;stroke-miterlimit:4;stroke-dasharray:4, 2;stroke-dashoffset:0;stroke-opacity:1"
       d="m 474.96794,590.43632 c 22.65406,-32.40431 36.56271,-70.86175 39.87717,-110.26048 2.00629,-23.84857 0.10143,-48.3677 -8.66895,-70.63561 -8.38461,-21.28844 -23.01909,-40.07171 -41.61096,-53.40743 -4.33542,-3.43735 -7.44813,-8.38619 -8.66894,-13.78256 -1.08978,-4.81719 -0.67665,-9.96326 1.16767,-14.5449 1.84432,-4.58164 5.11174,-8.57872 9.23506,-11.29739 l 1.73379,0"
       id="path4294-9"
       inkscape:path-effect="#path-effect4296-0"
       inkscape:original-d="m 474.96794,590.43632 c 0,0 35.49121,-71.44961 39.87717,-110.26048 2.66378,-23.57149 -7.71152,-45.77379 -8.66895,-70.63561 -0.70751,-18.37228 -41.61096,-53.40743 -41.61096,-53.40743 0,0 1.60162,5.4121 -8.66894,-13.78256 -4.3832,-8.19176 10.40273,-25.84229 10.40273,-25.84229 l 1.73379,0"
       inkscape:connector-curvature="0"
       sodipodi:nodetypes="csscscc" />
    <rect
       style="opacity:0.5;fill:#ff0000;fill-opacity:1;fill-rule:evenodd;stroke:#000000;stroke-width:0.74919307;stroke-linejoin:miter;stroke-miterlimit:4;stroke-dasharray:none;stroke-dashoffset:0;stroke-opacity:1"
       id="rect4152-36"
       width="85.253029"
       height="47.883415"
       x="-443.85791"
       y="586.34723"
       ry="0"
       transform="matrix(0.81046817,-0.58578268,0.91066497,0.41314563,0,0)" />
    <rect
       style="opacity:0.5;fill:#ff0000;fill-opacity:1;fill-rule:evenodd;stroke:#000000;stroke-width:0.74919307;stroke-linejoin:miter;stroke-miterlimit:4;stroke-dasharray:none;stroke-dashoffset:0;stroke-opacity:1"
       id="rect4152-36-0"
       width="85.253029"
       height="47.883415"
       x="-312.5267"
       y="768.36017"
       ry="0"
       transform="matrix(0.81046817,-0.58578268,0.91066497,0.41314563,0,0)" />
    <rect
       style="opacity:0.2;fill:#00ff00;fill-opacity:1;fill-rule:evenodd;stroke:#000000;stroke-width:3.9936831;stroke-linejoin:miter;stroke-miterlimit:4;stroke-dasharray:none;stroke-dashoffset:0;stroke-opacity:1"
       id="rect4152-367-5-3-5"
       width="452.14191"
       height="256.55469"
       x="-757.08484"
       y="718.62427"
       ry="0"
       transform="matrix(0.82691956,-0.56232023,0.91972085,0.392573,0,0)" />
    <path
       style="fill:none;fill-rule:evenodd;stroke:#ff0000;stroke-width:4;stroke-linecap:butt;stroke-linejoin:miter;stroke-miterlimit:4;stroke-dasharray:none;stroke-opacity:1"
       d="m 113.74888,434.61152 c 0,273.92624 0,275.65995 0,275.65995 l 0,0"
       id="path4169-5-6"
       inkscape:connector-curvature="0" />
  </g>
</svg>
